<?xml version="1.0" encoding="UTF-8"?>
<!DOCTYPE svg PUBLIC "-//W3C//DTD SVG 1.1//EN" "http://www.w3.org/Graphics/SVG/1.1/DTD/svg11.dtd">
<svg version="1.1" xmlns="http://www.w3.org/2000/svg" xmlns:xlink="http://www.w3.org/1999/xlink" x="0" y="0" width="1024" height="1024" viewBox="0, 0, 1024, 1024">
  <g id="dark-emoji-0013.png" transform="translate(0, 0)">
    <path d="M512,976 C255.74,976 48,768.26 48,512 C48,255.74 255.74,48 512,48 C768.26,48 976,255.74 976,512 C976,768.26 768.26,976 512,976 z" fill="#0C42F2"/>
    <path d="M512,880 C255.74,880 48,715.241 48,512 C48,308.759 255.74,144 512,144 C768.26,144 976,308.759 976,512 C976,715.241 768.26,880 512,880 z" fill="#3866FF"/>
    <path d="M512,928 C450.144,928 400,902.928 400,872 C400,841.072 450.144,816 512,816 C573.856,816 624,841.072 624,872 C624,902.928 573.856,928 512,928 z" fill="#3866FF"/>
    <path d="M750.773,592 C746.08,648.467 713.21,686.352 685.087,709.532 C631.716,753.523 570.254,767.415 511.387,768 C446.946,766.828 370.68,749.356 315.697,688.59 C296.017,666.84 274.693,633.777 272,592 C272,592 368,672 512,672 C656,672 750.773,592 750.773,592 z" fill="#AB1500"/>
    <path d="M752,656 C747.294,691.934 714.34,716.042 686.146,730.793 C632.638,758.787 571.018,767.627 512,768 C447.394,767.254 370.933,756.136 315.809,717.466 C296.078,703.625 274.699,682.585 272,656 C272,656 384,720 512,720 C640,720 752,656 752,656 z" fill="#D11D00"/>
    <path d="M767.887,592.5 C762.879,648.967 727.812,686.852 697.81,710.032 C640.872,754.023 575.302,767.915 512.5,768.5 C443.753,767.328 362.389,749.856 303.731,689.09 C282.735,667.34 259.986,634.277 257.113,592.5 C257.113,592.5 336.5,672.5 512.5,672.5 C688.5,672.5 767.887,592.5 767.887,592.5 z" fill-opacity="0" stroke="#001156" stroke-width="41" stroke-linecap="round" stroke-linejoin="round"/>
    <g>
      <path d="M391.426,672 L315.713,739.138 L240,806.277 L260.287,707.138 L280.574,608 L336,640 z" fill="#CFB401"/>
      <path d="M345.569,719.426 L296.785,755.923 L248,792.421 L255.215,731.923 L262.431,671.426 L304,695.426 z" fill="#FFEE91"/>
      <path d="M391.926,672.5 L316.213,739.638 L240.5,806.777 L260.787,707.638 L281.074,608.5 L336.5,640.5 z" fill-opacity="0" stroke="#001156" stroke-width="21" stroke-linecap="round" stroke-linejoin="round"/>
    </g>
    <g>
      <path d="M734.851,608 L755.138,707.138 L775.426,806.277 L699.713,739.138 L624,672 L679.426,640 z" fill="#CFB401"/>
      <path d="M752.994,671.426 L760.21,731.923 L767.425,792.421 L718.641,755.923 L669.856,719.426 L711.425,695.426 z" fill="#FFEE91"/>
      <path d="M735.351,608.5 L755.639,707.638 L775.926,806.777 L700.213,739.638 L624.5,672.5 L679.926,640.5 z" fill-opacity="0" stroke="#001156" stroke-width="21" stroke-linecap="round" stroke-linejoin="round"/>
    </g>
    <path d="M512.5,976.5 C256.24,976.5 48.5,768.76 48.5,512.5 C48.5,256.24 256.24,48.5 512.5,48.5 C768.76,48.5 976.5,256.24 976.5,512.5 C976.5,768.76 768.76,976.5 512.5,976.5 z" fill-opacity="0" stroke="#001156" stroke-width="41"/>
    <g>
      <path d="M360.692,535 C360.692,535 110.229,439.027 83.117,337.844 C56.005,236.661 211.03,199.253 295.11,290.246 C322.325,175.568 475.388,124.288 502.5,225.471 C529.612,326.654 360.692,535 360.692,535 z" fill="#0C42F2"/>
      <path d="M345.692,473 C345.692,473 95.229,377.027 68.117,275.844 C41.005,174.661 196.03,137.253 280.11,228.246 C307.325,113.568 460.388,62.288 487.5,163.471 C514.612,264.654 345.692,473 345.692,473 z" fill="#AB1500"/>
      <path d="M346.594,472.758 C346.594,472.758 121.591,406.868 100.614,328.582 C79.638,250.295 228.037,242.162 301.383,310.342 C330.487,219.458 466.552,146.622 487.529,224.908 C508.506,303.194 346.594,472.758 346.594,472.758 z" fill="#D11E01"/>
      <path d="M346.192,473.5 C346.192,473.5 95.729,377.527 68.617,276.344 C41.505,175.161 196.53,137.753 280.61,228.746 C307.825,114.068 460.888,62.788 488,163.971 C515.112,265.154 346.192,473.5 346.192,473.5 z" fill-opacity="0" stroke="#011256" stroke-width="42"/>
    </g>
    <g>
      <path d="M663.339,531.697 C663.339,531.697 494.418,323.351 521.53,222.168 C548.642,120.985 701.602,166.1 728.921,286.942 C809.828,201.236 968.025,233.358 940.913,334.541 C913.801,435.724 663.339,531.697 663.339,531.697 z" fill="#0C42F2"/>
      <path d="M680.339,473.697 C680.339,473.697 511.418,265.351 538.53,164.168 C565.642,62.985 718.602,108.1 745.921,228.942 C826.828,143.236 985.025,175.358 957.913,276.541 C930.801,377.724 680.339,473.697 680.339,473.697 z" fill="#AB1500"/>
      <path d="M681.241,473.938 C681.241,473.938 519.328,304.374 540.305,226.088 C561.282,147.802 693.866,214.958 723.295,310.676 C793.942,246.521 948.196,251.475 927.22,329.761 C906.243,408.048 681.241,473.938 681.241,473.938 z" fill="#D11E01"/>
      <path d="M680.839,474.197 C680.839,474.197 511.918,265.851 539.03,164.668 C566.142,63.485 719.102,108.6 746.421,229.442 C827.328,143.736 985.525,175.858 958.413,277.041 C931.301,378.224 680.839,474.197 680.839,474.197 z" fill-opacity="0" stroke="#011256" stroke-width="42"/>
    </g>
  </g>
</svg>
