<?xml version="1.0" encoding="UTF-8"?>
<!DOCTYPE svg PUBLIC "-//W3C//DTD SVG 1.1//EN" "http://www.w3.org/Graphics/SVG/1.1/DTD/svg11.dtd">
<svg version="1.1" xmlns="http://www.w3.org/2000/svg" xmlns:xlink="http://www.w3.org/1999/xlink" x="0" y="0" width="1024" height="1024" viewBox="0, 0, 1024, 1024">
  <g id="dark-emoji-0004.png" transform="translate(0, 0)">
    <path d="M236.379,885.268 C30.229,733.047 -13.489,442.529 138.732,236.379 C290.953,30.229 581.471,-13.489 787.621,138.732 C993.771,290.953 1037.489,581.47 885.268,787.621 C733.047,993.771 442.529,1037.489 236.379,885.268 z" fill="#0C42F2"/>
    <path d="M293.404,808.04 C87.254,655.819 18.005,399.878 138.732,236.379 C259.459,72.881 524.446,63.738 730.596,215.96 C936.746,368.181 1005.995,624.122 885.268,787.621 C764.541,951.119 499.554,960.262 293.404,808.04 z" fill="#3866FF"/>
    <path d="M236.879,885.768 C30.729,733.547 -12.989,443.029 139.232,236.879 C291.453,30.729 581.971,-12.989 788.121,139.232 C994.271,291.453 1037.989,581.971 885.768,788.121 C733.547,994.271 443.029,1037.989 236.879,885.768 z" fill-opacity="0" stroke="#001156" stroke-width="41"/>
    <path d="M264.892,846.654 C215.131,809.911 189.686,759.956 208.057,735.076 C226.429,710.195 281.66,719.812 331.421,756.555 C381.181,793.298 406.627,843.254 388.255,868.134 C369.884,893.014 314.652,883.397 264.892,846.654 z" fill="#3866FF"/>
    <g>
      <path d="M657.216,714.087 C619.898,756.725 570.952,767.676 534.56,769.618 C465.494,773.304 407.798,747.97 360.094,713.473 C308.951,674.253 257.976,614.894 249.84,533.35 C246.928,504.163 249.414,464.898 272.064,429.691 L465.133,572.253 L657.216,714.087 z" fill="#AB1500"/>
      <path d="M620.186,766.3 C601.178,792.044 551.965,772.08 530.685,779.769 C476.429,799.375 379.756,787.234 332.075,752.452 C280.509,713.525 248.113,650.676 247.516,570.678 C247.34,547.221 221.742,502.384 234.047,481.176 L427.117,623.738 L620.186,766.3 z" fill="#D11D00"/>
      <path d="M671.081,724.456 C633.511,766.907 613.427,767.893 575.936,773.535 C508.809,783.637 435.546,828.985 332.575,752.952 C229.605,676.918 251.404,610.172 240.312,526.445 C236.341,496.476 237.68,456.365 260.186,421.051 L465.633,572.753 L671.081,724.456 z" fill-opacity="0" stroke="#001156" stroke-width="41" stroke-linecap="round" stroke-linejoin="round"/>
    </g>
    <g>
      <path d="M362.163,496.22 L279.395,554.439 L196.628,612.659 L227.91,516.423 L259.192,420.186 L310.678,458.203 z" fill="#CFB401"/>
      <path d="M311.275,538.201 L258.703,568.994 L206.132,599.788 L220.089,540.482 L234.047,481.176 L272.661,509.688 z" fill="#FFEE91"/>
      <path d="M362.663,496.72 L279.895,554.939 L197.128,613.159 L228.41,516.923 L259.692,420.686 L311.178,458.703 z" fill-opacity="0" stroke="#001156" stroke-width="21" stroke-linecap="round" stroke-linejoin="round"/>
    </g>
    <g>
      <path d="M671.074,724.32 L588.307,782.539 L505.539,840.759 L536.821,744.523 L568.104,648.286 L619.589,686.303 z" fill="#CFB401"/>
      <path d="M620.186,766.3 L567.614,797.094 L515.043,827.887 L529.001,768.582 L542.958,709.276 L581.572,737.788 z" fill="#FFEE91"/>
      <path d="M671.574,724.82 L588.807,783.039 L506.039,841.259 L537.321,745.023 L568.604,648.786 L620.089,686.803 z" fill-opacity="0" stroke="#001156" stroke-width="21" stroke-linecap="round" stroke-linejoin="round"/>
    </g>
    <g>
      <path d="M285.102,693.199 L323.881,673.446 L374.221,638.036 L355.195,696.569 L336.169,755.101 z" fill="#CFB401"/>
      <path d="M304.491,683.323 L336.466,664.594 L368.441,645.865 L359.951,681.935 L345.682,725.835 z" fill="#FFEE91"/>
      <path d="M285.602,693.699 L374.721,638.536 L355.695,697.069 L336.669,755.601 z" fill-opacity="0" stroke="#001156" stroke-width="21" stroke-linecap="round" stroke-linejoin="round"/>
    </g>
    <g>
      <path d="M410.312,785.75 L417.777,742.875 L436.803,684.343 L386.463,719.753 L336.123,755.163 z" fill="#CFB401"/>
      <path d="M414.044,764.313 L422.534,728.242 L431.023,692.172 L399.048,710.901 L361.293,737.458 z" fill="#FFEE91"/>
      <path d="M410.812,786.25 L437.303,684.843 L386.963,720.253 L336.623,755.663 z" fill-opacity="0" stroke="#001156" stroke-width="21" stroke-linecap="round" stroke-linejoin="round"/>
    </g>
    <path d="M403.041,309.399 C367.498,283.154 292.541,324.37 352.439,243.25 C412.338,162.131 451.692,169.131 487.235,195.376 C522.779,221.621 541.051,257.172 481.152,338.292 C421.254,419.412 438.584,335.644 403.041,309.399 z" fill="#CFB400"/>
    <path d="M384.18,334.942 C357.523,315.258 281.478,339.352 327.837,276.568 C374.197,213.784 423.146,226.386 449.803,246.07 C476.461,265.754 502.91,308.826 456.55,371.61 C410.191,434.394 410.838,354.625 384.18,334.942 z" fill="#FFEE91"/>
    <path d="M384.68,335.442 C307.453,278.417 276.536,347.222 335.544,267.308 C394.552,187.395 452.192,169.631 487.736,195.876 C523.279,222.121 523.265,282.437 464.257,362.35 C405.249,442.263 437.592,374.511 384.68,335.442 z" fill-opacity="0" stroke="#001156" stroke-width="41" stroke-linecap="round" stroke-linejoin="round"/>
    <path d="M738.5,557.101 C702.957,530.856 627.999,572.072 687.898,490.953 C747.797,409.833 787.151,416.833 822.694,443.078 C858.237,469.323 876.51,504.875 816.611,585.994 C756.712,667.114 774.043,583.346 738.5,557.101 z" fill="#CFB400"/>
    <path d="M719.639,582.644 C692.982,562.96 616.936,587.055 663.296,524.271 C709.656,461.487 758.604,474.088 785.262,493.772 C811.919,513.456 838.369,556.528 792.009,619.312 C745.649,682.096 746.296,602.328 719.639,582.644 z" fill="#FFEE91"/>
    <path d="M720.139,583.144 C642.911,526.119 611.995,594.924 671.003,515.011 C730.01,435.097 787.651,417.333 823.194,443.578 C858.737,469.823 858.724,530.139 799.716,610.052 C740.708,689.966 773.05,622.213 720.139,583.144 z" fill-opacity="0" stroke="#001156" stroke-width="41" stroke-linecap="round" stroke-linejoin="round"/>
    <g>
      <path d="M162.996,376.865 C150.635,348.515 159.349,319.546 190.633,303.724 C238.563,279.482 354.652,259.561 367.013,287.911 C379.374,316.261 294.062,385.146 235.396,406.389 C191.114,422.424 175.357,405.215 162.996,376.865 z" fill="#830E00"/>
      <path d="M162.996,376.865 C150.635,348.515 154.03,321.865 175.8,310.191 C209.154,292.305 294.152,285.939 306.513,314.289 C318.875,342.64 262.304,398.993 220.564,412.856 C189.058,423.321 175.357,405.215 162.996,376.865 z" fill="#D11E01"/>
      <path d="M163.496,377.365 C151.135,349.015 159.849,320.046 191.133,304.224 C239.063,279.982 355.152,260.061 367.513,288.411 C379.874,316.761 294.562,385.646 235.896,406.889 C191.614,422.924 175.857,405.715 163.496,377.365 z" fill-opacity="0" stroke="#011256" stroke-width="21"/>
    </g>
    <g>
      <path d="M743.445,805.468 C774.177,808.938 799.299,792.084 805.213,757.529 C814.275,704.587 799.149,587.777 768.417,584.307 C737.684,580.837 696.958,682.643 693.921,744.963 C691.628,792.003 712.712,801.998 743.445,805.468 z" fill="#830E00"/>
      <path d="M743.445,805.468 C774.177,808.938 798.648,797.849 803.398,773.608 C810.675,736.467 791.744,653.36 761.011,649.89 C730.279,646.42 693.07,717.07 692.105,761.042 C691.377,794.232 712.712,801.998 743.445,805.468 z" fill="#D11E01"/>
      <path d="M743.945,805.968 C774.677,809.438 799.799,792.584 805.713,758.029 C814.775,705.087 799.649,588.277 768.917,584.807 C738.184,581.337 697.458,683.143 694.421,745.463 C692.128,792.503 713.212,802.498 743.945,805.968 z" fill-opacity="0" stroke="#011256" stroke-width="21"/>
    </g>
  </g>
</svg>
