<?xml version="1.0" encoding="UTF-8"?>
<!DOCTYPE svg PUBLIC "-//W3C//DTD SVG 1.1//EN" "http://www.w3.org/Graphics/SVG/1.1/DTD/svg11.dtd">
<svg version="1.1" xmlns="http://www.w3.org/2000/svg" xmlns:xlink="http://www.w3.org/1999/xlink" x="0" y="0" width="1024" height="1024" viewBox="0, 0, 1024, 1024">
  <g id="dark-emoji-0002.png" transform="translate(0, 0)">
    <path d="M512,976 C255.74,976 48,768.26 48,512 C48,255.74 255.74,48 512,48 C768.26,48 976,255.74 976,512 C976,768.26 768.26,976 512,976 z" fill="#0C42F2"/>
    <path d="M512,880 C255.74,880 48,715.241 48,512 C48,308.759 255.74,144 512,144 C768.26,144 976,308.759 976,512 C976,715.241 768.26,880 512,880 z" fill="#3866FF"/>
    <path d="M512.5,976.5 C256.24,976.5 48.5,768.76 48.5,512.5 C48.5,256.24 256.24,48.5 512.5,48.5 C768.76,48.5 976.5,256.24 976.5,512.5 C976.5,768.76 768.76,976.5 512.5,976.5 z" fill-opacity="0" stroke="#001156" stroke-width="41"/>
    <path d="M512,928 C450.144,928 400,902.928 400,872 C400,841.072 450.144,816 512,816 C573.856,816 624,841.072 624,872 C624,902.928 573.856,928 512,928 z" fill="#3866FF"/>
    <g>
      <path d="M750.773,592 C746.08,648.467 713.21,686.352 685.087,709.532 C631.716,753.523 570.254,767.415 511.387,768 C446.946,766.828 370.68,749.356 315.697,688.59 C296.017,666.84 274.692,633.777 272,592 L512,592 L750.773,592 z" fill="#AB1500"/>
      <path d="M751.999,656 C752,688 700.551,701.173 688,720 C656,768 571.018,815.658 512,816 C447.395,815.317 384,784 336,720 C321.925,701.234 274.699,680.37 272,656 L512,656 L751.999,656 z" fill="#D11D00"/>
      <path d="M767.887,592.5 C762.879,648.968 747.309,661.691 720.5,688.5 C672.5,736.5 640.5,816.5 512.5,816.5 C384.5,816.5 362.389,749.857 303.731,689.09 C282.735,667.34 259.986,634.277 257.113,592.5 L512.5,592.5 L767.887,592.5 z" fill-opacity="0" stroke="#001156" stroke-width="41" stroke-linecap="round" stroke-linejoin="round"/>
    </g>
    <g>
      <path d="M384,592 L352,688 L320,784 L288,688 L256,592 L320,592 z" fill="#CFB401"/>
      <path d="M368,656 L344,712 L320,768 L296,712 L272,656 L320,656 z" fill="#FFEE91"/>
      <path d="M384.5,592.5 L352.5,688.5 L320.5,784.5 L288.5,688.5 L256.5,592.5 L320.5,592.5 z" fill-opacity="0" stroke="#001156" stroke-width="21" stroke-linecap="round" stroke-linejoin="round"/>
    </g>
    <g>
      <path d="M768,592 L736,688 L704,784 L672,688 L640,592 L704,592 z" fill="#CFB401"/>
      <path d="M751.999,656 L728,712 L704,768 L680,712 L656,656 L704,656 z" fill="#FFEE91"/>
      <path d="M768.5,592.5 L736.5,688.5 L704.5,784.5 L672.5,688.5 L640.5,592.5 L704.5,592.5 z" fill-opacity="0" stroke="#001156" stroke-width="21" stroke-linecap="round" stroke-linejoin="round"/>
    </g>
    <g>
      <path d="M439.016,796.237 L458.478,757.311 L477.941,698.923 L497.404,757.311 L516.867,815.7 z" fill="#CFB401"/>
      <path d="M448.747,776.774 L463.344,742.714 L477.941,708.654 L492.538,742.714 L507.135,786.505 z" fill="#FFEE91"/>
      <path d="M439.516,796.737 L478.441,699.423 L497.904,757.811 L517.367,816.2 z" fill-opacity="0" stroke="#001156" stroke-width="21" stroke-linecap="round" stroke-linejoin="round"/>
    </g>
    <g>
      <path d="M594.718,796.314 L575.255,757.388 L555.792,699 L536.33,757.388 L516.867,815.777 z" fill="#CFB401"/>
      <path d="M584.987,776.851 L570.39,742.791 L555.792,708.732 L541.195,742.791 L526.598,786.583 z" fill="#FFEE91"/>
      <path d="M595.218,796.814 L556.292,699.5 L536.83,757.888 L517.367,816.277 z" fill-opacity="0" stroke="#001156" stroke-width="21" stroke-linecap="round" stroke-linejoin="round"/>
    </g>
    <path d="M304,413.738 C259.817,413.738 224,491.421 224,390.583 C224,289.745 259.817,272 304,272 C348.183,272 384,289.745 384,390.583 C384,491.421 348.183,413.738 304,413.738 z" fill="#CFB400"/>
    <path d="M304,445.49 C270.863,445.49 224,510.045 224,432 C224,353.955 270.863,335.016 304,335.016 C337.137,335.016 384,353.955 384,432 C384,510.045 337.137,445.49 304,445.49 z" fill="#FFEE91"/>
    <path d="M304.5,445.99 C208.5,445.99 224.5,519.706 224.5,420.367 C224.5,321.029 260.317,272.5 304.5,272.5 C348.683,272.5 384.5,321.029 384.5,420.367 C384.5,519.706 370.272,445.99 304.5,445.99 z" fill-opacity="0" stroke="#001156" stroke-width="41" stroke-linecap="round" stroke-linejoin="round"/>
    <path d="M721,413.738 C676.817,413.738 641,491.421 641,390.583 C641,289.745 676.817,272 721,272 C765.183,272 801,289.745 801,390.583 C801,491.421 765.183,413.738 721,413.738 z" fill="#CFB400"/>
    <path d="M721,445.49 C687.863,445.49 641,510.045 641,432 C641,353.955 687.863,335.016 721,335.016 C754.137,335.016 801,353.955 801,432 C801,510.045 754.137,445.49 721,445.49 z" fill="#FFEE91"/>
    <path d="M721.5,445.99 C625.5,445.99 641.5,519.706 641.5,420.367 C641.5,321.029 677.317,272.5 721.5,272.5 C765.683,272.5 801.5,321.029 801.5,420.367 C801.5,519.706 787.273,445.99 721.5,445.99 z" fill-opacity="0" stroke="#001156" stroke-width="41" stroke-linecap="round" stroke-linejoin="round"/>
  </g>
</svg>
