<?xml version="1.0" encoding="UTF-8"?>
<!DOCTYPE svg PUBLIC "-//W3C//DTD SVG 1.1//EN" "http://www.w3.org/Graphics/SVG/1.1/DTD/svg11.dtd">
<svg version="1.1" xmlns="http://www.w3.org/2000/svg" xmlns:xlink="http://www.w3.org/1999/xlink" x="0" y="0" width="1024" height="1024" viewBox="0, 0, 1024, 1024">
  <g id="dark-emoji-0003.png" transform="translate(0, 0)">
    <path d="M512,976 C255.74,976 48,768.26 48,512 C48,255.74 255.74,48 512,48 C768.26,48 976,255.74 976,512 C976,768.26 768.26,976 512,976 z" fill="#0C42F2"/>
    <path d="M512,880 C255.74,880 48,715.241 48,512 C48,308.759 255.74,144 512,144 C768.26,144 976,308.759 976,512 C976,715.241 768.26,880 512,880 z" fill="#3866FF"/>
    <path d="M512.5,976.5 C256.24,976.5 48.5,768.76 48.5,512.5 C48.5,256.24 256.24,48.5 512.5,48.5 C768.76,48.5 976.5,256.24 976.5,512.5 C976.5,768.76 768.76,976.5 512.5,976.5 z" fill-opacity="0" stroke="#001156" stroke-width="41"/>
    <path d="M512,928 C450.144,928 400,902.928 400,872 C400,841.072 450.144,816 512,816 C573.856,816 624,841.072 624,872 C624,902.928 573.856,928 512,928 z" fill="#3866FF"/>
    <path d="M750.773,592 C746.08,648.467 713.21,686.352 685.087,709.532 C631.716,753.523 570.254,767.415 511.387,768 C446.946,766.828 370.68,749.356 315.697,688.59 C296.017,666.84 274.693,633.777 272,592 L750.773,592 z" fill="#AB1500"/>
    <path d="M752,656 C747.294,691.934 714.34,716.042 686.146,730.793 C632.638,758.787 571.018,767.628 512,768 C447.394,767.254 370.933,756.136 315.809,717.467 C296.078,703.626 274.699,682.586 272,656 L752,656 z" fill="#D11D00"/>
    <path d="M767.887,592.5 C762.879,648.967 727.812,686.852 697.81,710.032 C640.872,754.023 575.302,767.915 512.5,768.5 C443.752,767.328 362.389,749.856 303.731,689.09 C282.735,667.34 259.986,634.277 257.113,592.5 L767.887,592.5 z" fill-opacity="0" stroke="#001156" stroke-width="41" stroke-linecap="round" stroke-linejoin="round"/>
    <g>
      <path d="M384,592 L352,688 L320,784 L288,688 L256,592 L320,592 z" fill="#CFB401"/>
      <path d="M368,656 L344,712 L320,768 L296,712 L272,656 L320,656 z" fill="#FFEE91"/>
      <path d="M384.5,592.5 L352.5,688.5 L320.5,784.5 L288.5,688.5 L256.5,592.5 L320.5,592.5 z" fill-opacity="0" stroke="#001156" stroke-width="21" stroke-linecap="round" stroke-linejoin="round"/>
    </g>
    <g>
      <path d="M768,592 L736,688 L704,784 L672,688 L640,592 L704,592 z" fill="#CFB401"/>
      <path d="M751.999,656 L728,712 L704,768 L680,712 L656,656 L704,656 z" fill="#FFEE91"/>
      <path d="M768.5,592.5 L736.5,688.5 L704.5,784.5 L672.5,688.5 L640.5,592.5 L704.5,592.5 z" fill-opacity="0" stroke="#001156" stroke-width="21" stroke-linecap="round" stroke-linejoin="round"/>
    </g>
    <path d="M304,413.738 C259.817,413.738 224,491.421 224,390.583 C224,289.745 259.817,272 304,272 C348.183,272 384,289.745 384,390.583 C384,491.421 348.183,413.738 304,413.738 z" fill="#CFB400"/>
    <path d="M304,445.49 C270.863,445.49 224,510.045 224,432 C224,353.955 270.863,335.016 304,335.016 C337.137,335.016 384,353.955 384,432 C384,510.045 337.137,445.49 304,445.49 z" fill="#FFEE91"/>
    <path d="M304.5,445.99 C208.5,445.99 224.5,519.706 224.5,420.367 C224.5,321.029 260.317,272.5 304.5,272.5 C348.683,272.5 384.5,321.029 384.5,420.367 C384.5,519.706 370.272,445.99 304.5,445.99 z" fill-opacity="0" stroke="#001156" stroke-width="41" stroke-linecap="round" stroke-linejoin="round"/>
    <path d="M721,413.738 C676.817,413.738 641,491.421 641,390.583 C641,289.745 676.817,272 721,272 C765.183,272 801,289.745 801,390.583 C801,491.421 765.183,413.738 721,413.738 z" fill="#CFB400"/>
    <path d="M721,445.49 C687.863,445.49 641,510.045 641,432 C641,353.955 687.863,335.016 721,335.016 C754.137,335.016 801,353.955 801,432 C801,510.045 754.137,445.49 721,445.49 z" fill="#FFEE91"/>
    <path d="M721.5,445.99 C625.5,445.99 641.5,519.706 641.5,420.367 C641.5,321.029 677.317,272.5 721.5,272.5 C765.683,272.5 801.5,321.029 801.5,420.367 C801.5,519.706 787.273,445.99 721.5,445.99 z" fill-opacity="0" stroke="#001156" stroke-width="41" stroke-linecap="round" stroke-linejoin="round"/>
    <g>
      <path d="M150.97,610.602 C124.185,595.138 113.987,566.657 129.755,535.346 C153.914,487.374 235.468,402.39 262.253,417.854 C289.037,433.318 261.326,539.408 226.75,591.346 C200.652,630.549 177.754,626.066 150.97,610.602 z" fill="#830E00"/>
      <path d="M150.97,610.602 C124.185,595.138 111.086,571.682 121.665,549.359 C137.872,515.158 202.468,459.548 229.253,475.012 C256.037,490.475 244.003,569.413 218.66,605.359 C199.53,632.492 177.754,626.066 150.97,610.602 z" fill="#D11E01"/>
      <path d="M151.47,611.102 C124.685,595.638 114.487,567.157 130.255,535.846 C154.414,487.874 235.968,402.89 262.753,418.354 C289.537,433.818 261.826,539.908 227.25,591.846 C201.152,631.049 178.254,626.566 151.47,611.102 z" fill-opacity="0" stroke="#011256" stroke-width="21"/>
    </g>
    <g>
      <path d="M872.51,610.602 C899.295,595.138 909.492,566.657 893.725,535.346 C869.566,487.374 788.012,402.39 761.227,417.854 C734.443,433.318 762.154,539.408 796.73,591.346 C822.828,630.549 845.726,626.066 872.51,610.602 z" fill="#830E00"/>
      <path d="M872.51,610.602 C899.295,595.138 912.394,571.682 901.815,549.359 C885.608,515.158 821.012,459.548 794.227,475.012 C767.443,490.475 779.477,569.413 804.82,605.359 C823.95,632.492 845.726,626.066 872.51,610.602 z" fill="#D11E01"/>
      <path d="M873.01,611.102 C899.795,595.638 909.992,567.157 894.225,535.846 C870.066,487.874 788.512,402.89 761.727,418.354 C734.943,433.818 762.654,539.908 797.23,591.846 C823.328,631.049 846.226,626.566 873.01,611.102 z" fill-opacity="0" stroke="#011256" stroke-width="21"/>
    </g>
  </g>
</svg>
