<?xml version="1.0" encoding="UTF-8"?>
<!DOCTYPE svg PUBLIC "-//W3C//DTD SVG 1.1//EN" "http://www.w3.org/Graphics/SVG/1.1/DTD/svg11.dtd">
<svg version="1.1" xmlns="http://www.w3.org/2000/svg" xmlns:xlink="http://www.w3.org/1999/xlink" x="0" y="0" width="1024" height="1024" viewBox="0, 0, 1024, 1024">
  <g id="dark-emoji-0041.png" transform="translate(0, 0)">
    <path d="M512,976 C255.74,976 48,768.26 48,512 C48,255.74 255.74,48 512,48 C768.26,48 976,255.74 976,512 C976,768.26 768.26,976 512,976 z" fill="#0C42F2"/>
    <path d="M512,880 C255.74,880 48,715.241 48,512 C48,308.759 255.74,144 512,144 C768.26,144 976,308.759 976,512 C976,715.241 768.26,880 512,880 z" fill="#3866FF"/>
    <path d="M512,928 C450.144,928 400,902.928 400,872 C400,841.072 450.144,816 512,816 C573.856,816 624,841.072 624,872 C624,902.928 573.856,928 512,928 z" fill="#3866FF"/>
    <path d="M750.773,592 C746.08,648.467 713.21,686.352 685.087,709.532 C631.716,753.523 570.254,767.415 511.387,768 C446.946,766.828 370.68,749.356 315.697,688.59 C296.017,666.84 274.693,633.777 272,592 C272,592 368,672 512,672 C656,672 750.773,592 750.773,592 z" fill="#AB1500"/>
    <path d="M752,656 C747.294,691.934 714.34,716.042 686.146,730.793 C632.638,758.787 571.018,767.627 512,768 C447.394,767.254 370.933,756.136 315.809,717.466 C296.078,703.625 274.699,682.585 272,656 C272,656 384,720 512,720 C640,720 752,656 752,656 z" fill="#D11D00"/>
    <path d="M767.887,592.5 C762.879,648.967 727.812,686.852 697.81,710.032 C640.872,754.023 575.302,767.915 512.5,768.5 C443.753,767.328 362.389,749.856 303.731,689.09 C282.735,667.34 259.986,634.277 257.113,592.5 C257.113,592.5 336.5,672.5 512.5,672.5 C688.5,672.5 767.887,592.5 767.887,592.5 z" fill-opacity="0" stroke="#001156" stroke-width="41" stroke-linecap="round" stroke-linejoin="round"/>
    <g>
      <path d="M391.426,672 L315.713,739.138 L240,806.277 L260.287,707.138 L280.574,608 L336,640 z" fill="#CFB401"/>
      <path d="M345.569,719.426 L296.785,755.923 L248,792.421 L255.215,731.923 L262.431,671.426 L304,695.426 z" fill="#FFEE91"/>
      <path d="M391.926,672.5 L316.213,739.638 L240.5,806.777 L260.787,707.638 L281.074,608.5 L336.5,640.5 z" fill-opacity="0" stroke="#001156" stroke-width="21" stroke-linecap="round" stroke-linejoin="round"/>
    </g>
    <g>
      <path d="M734.851,608 L755.138,707.138 L775.426,806.277 L699.713,739.138 L624,672 L679.426,640 z" fill="#CFB401"/>
      <path d="M752.994,671.426 L760.21,731.923 L767.425,792.421 L718.641,755.923 L669.856,719.426 L711.425,695.426 z" fill="#FFEE91"/>
      <path d="M735.351,608.5 L755.639,707.638 L775.926,806.777 L700.213,739.638 L624.5,672.5 L679.926,640.5 z" fill-opacity="0" stroke="#001156" stroke-width="21" stroke-linecap="round" stroke-linejoin="round"/>
    </g>
    <path d="M512.5,976.5 C256.24,976.5 48.5,768.76 48.5,512.5 C48.5,256.24 256.24,48.5 512.5,48.5 C768.76,48.5 976.5,256.24 976.5,512.5 C976.5,768.76 768.76,976.5 512.5,976.5 z" fill-opacity="0" stroke="#001156" stroke-width="41"/>
    <g>
      <path d="M381.582,956.566 C348.431,956.566 323.7,935.593 321.556,898.077 C318.272,840.598 348.431,718 381.582,718 C414.733,718 445.868,831.334 441.608,898.077 C438.392,948.456 414.733,956.566 381.582,956.566 z" fill="#830E00"/>
      <path d="M381.582,956.566 C348.431,956.566 323.7,941.813 321.556,915.422 C318.272,874.987 348.431,788.745 381.582,788.745 C414.733,788.745 445.868,868.47 441.608,915.422 C438.392,950.861 414.733,956.566 381.582,956.566 z" fill="#D11E01"/>
      <path d="M382.082,957.066 C348.931,957.066 324.2,936.093 322.056,898.577 C318.772,841.098 348.931,718.5 382.082,718.5 C415.233,718.5 446.368,831.834 442.108,898.577 C438.892,948.956 415.233,957.066 382.082,957.066 z" fill-opacity="0" stroke="#011256" stroke-width="21"/>
    </g>
    <g>
      <path d="M442.334,905.566 C419.049,905.566 401.678,890.835 400.173,864.484 C397.866,824.111 419.049,738 442.334,738 C465.619,738 487.488,817.604 484.495,864.484 C482.237,899.87 465.619,905.566 442.334,905.566 z" fill="#830E00"/>
      <path d="M442.334,905.566 C419.049,905.566 401.678,895.203 400.173,876.667 C397.866,848.266 419.049,787.69 442.334,787.69 C465.619,787.69 487.488,843.689 484.495,876.667 C482.237,901.559 465.619,905.566 442.334,905.566 z" fill="#D11E01"/>
      <path d="M442.834,906.066 C419.549,906.066 402.178,891.335 400.673,864.984 C398.366,824.611 419.549,738.5 442.834,738.5 C466.119,738.5 487.988,818.104 484.995,864.984 C482.737,900.37 466.119,906.066 442.834,906.066 z" fill-opacity="0" stroke="#011256" stroke-width="21"/>
    </g>
    <g>
      <path d="M494.303,865.316 C477.948,865.316 465.747,854.969 464.689,836.46 C463.069,808.103 477.948,747.619 494.303,747.619 C510.658,747.619 526.019,803.533 523.917,836.46 C522.33,861.315 510.658,865.316 494.303,865.316 z" fill="#830E00"/>
      <path d="M494.303,865.316 C477.948,865.316 465.747,858.037 464.689,845.017 C463.069,825.069 477.948,782.521 494.303,782.521 C510.658,782.521 526.019,821.854 523.917,845.017 C522.33,862.501 510.658,865.316 494.303,865.316 z" fill="#D11E01"/>
      <path d="M494.803,865.816 C478.448,865.816 466.247,855.469 465.189,836.96 C463.569,808.603 478.448,748.119 494.803,748.119 C511.158,748.119 526.519,804.033 524.417,836.96 C522.83,861.815 511.158,865.816 494.803,865.816 z" fill-opacity="0" stroke="#011256" stroke-width="21"/>
    </g>
    <path d="M390.425,259.306 C311.985,214.019 211.685,240.894 166.397,319.334" fill-opacity="0" stroke="#001156" stroke-width="41" stroke-linecap="round"/>
    <path d="M853.465,319.334 C808.178,240.894 707.877,214.019 629.437,259.306" fill-opacity="0" stroke="#001156" stroke-width="41" stroke-linecap="round"/>
    <g>
      <g>
        <path d="M300,464.28 C255.817,464.28 220,442.795 220,382.78 C220,322.766 255.817,301.28 300,301.28 C344.183,301.28 380,322.766 380,382.78 C380,442.795 344.183,464.28 300,464.28 z" fill="#6887FF"/>
      </g>
      <path d="M220.5,383.28 L380.5,383.28" fill-opacity="0" stroke="#011256" stroke-width="42" stroke-linecap="round" stroke-linejoin="round"/>
    </g>
    <g>
      <g>
        <path d="M719,464.28 C674.817,464.28 639,442.795 639,382.78 C639,322.766 674.817,301.28 719,301.28 C763.183,301.28 799,322.766 799,382.78 C799,442.795 763.183,464.28 719,464.28 z" fill="#6887FF"/>
      </g>
      <path d="M639.5,383.281 L799.5,383.281" fill-opacity="0" stroke="#011256" stroke-width="42" stroke-linecap="round" stroke-linejoin="round"/>
    </g>
  </g>
</svg>
