<?xml version="1.0" encoding="UTF-8"?>
<!DOCTYPE svg PUBLIC "-//W3C//DTD SVG 1.1//EN" "http://www.w3.org/Graphics/SVG/1.1/DTD/svg11.dtd">
<svg version="1.1" xmlns="http://www.w3.org/2000/svg" xmlns:xlink="http://www.w3.org/1999/xlink" x="0" y="0" width="1024" height="1024" viewBox="0, 0, 1024, 1024">
  <g id="dark-emoji-0023.png" transform="translate(0, 0)">
    <path d="M512,976 C255.74,976 48,768.26 48,512 C48,255.74 255.74,48 512,48 C768.26,48 976,255.74 976,512 C976,768.26 768.26,976 512,976 z" fill="#0C42F2"/>
    <path d="M512,880 C255.74,880 48,715.241 48,512 C48,308.759 255.74,144 512,144 C768.26,144 976,308.759 976,512 C976,715.241 768.26,880 512,880 z" fill="#3866FF"/>
    <path d="M512.5,976.5 C256.24,976.5 48.5,768.76 48.5,512.5 C48.5,256.24 256.24,48.5 512.5,48.5 C768.76,48.5 976.5,256.24 976.5,512.5 C976.5,768.76 768.76,976.5 512.5,976.5 z" fill-opacity="0" stroke="#001156" stroke-width="41"/>
    <path d="M512,928 C450.144,928 400,902.928 400,872 C400,841.072 450.144,816 512,816 C573.856,816 624,841.072 624,872 C624,902.928 573.856,928 512,928 z" fill="#3866FF"/>
    <path d="M304,483 C227.785,483 166,412.693 166,325.966 C166,239.238 227.785,168.931 304,168.931 C380.215,168.931 442,239.238 442,325.966 C442,412.693 380.215,483 304,483 z" fill="#6887FF"/>
    <g>
      <path d="M304,464 C259.817,464 224,438.692 224,368 C224,297.308 259.817,272 304,272 C348.183,272 384,297.308 384,368 C384,438.692 348.183,464 304,464 z" fill="#CFB400"/>
      <path d="M304,464 C270.863,464 244,460.183 244,416 C244,371.817 270.863,336 304,336 C337.137,336 364,371.817 364,416 C364,460.183 337.137,464 304,464 z" fill="#FFEE91"/>
      <path d="M304.5,464.5 C260.317,464.5 224.5,439.192 224.5,368.5 C224.5,297.808 260.317,272.5 304.5,272.5 C348.683,272.5 384.5,297.808 384.5,368.5 C384.5,439.192 348.683,464.5 304.5,464.5 z" fill-opacity="0" stroke="#001156" stroke-width="41"/>
    </g>
    <g>
      <path d="M720,464 C675.817,464 640,442.515 640,382.5 C640,322.485 675.817,301 720,301 C764.183,301 800,322.485 800,382.5 C800,442.515 764.183,464 720,464 z" fill="#CFB400"/>
      <path d="M720,464 C686.863,464 660,460.759 660,423.25 C660,385.741 686.863,355.333 720,355.333 C753.137,355.333 780,385.741 780,423.25 C780,460.759 753.137,464 720,464 z" fill="#FFEE91"/>
      <path d="M720.5,464.5 C676.317,464.5 640.5,443.015 640.5,383 C640.5,322.985 676.317,301.5 720.5,301.5 C764.683,301.5 800.5,322.985 800.5,383 C800.5,443.015 764.683,464.5 720.5,464.5 z" fill-opacity="0" stroke="#001156" stroke-width="41"/>
    </g>
    <g>
      <path d="M461.287,593 L429.287,689 L397.287,785 L365.287,689 L333.287,593 L397.287,593 z" fill="#CFB401"/>
      <path d="M445.287,657 L421.287,713 L397.287,769 L373.287,713 L349.287,657 L397.287,657 z" fill="#FFEE91"/>
      <path d="M461.787,593.5 L429.787,689.5 L397.787,785.5 L365.787,689.5 L333.787,593.5 L397.787,593.5 z" fill-opacity="0" stroke="#001156" stroke-width="21" stroke-linecap="round" stroke-linejoin="round"/>
    </g>
    <g>
      <path d="M674,611 L648.713,689 L616.713,785 L584.713,689 L552.713,593 L616.713,593 z" fill="#CFB401"/>
      <path d="M664.712,657 L640.712,713 L616.712,769 L592.713,713 L568.713,657 L616.712,657 z" fill="#FFEE91"/>
      <path d="M674.5,611.5 L649.213,689.5 L617.213,785.5 L585.213,689.5 L553.213,593.5 L617.213,593.5 z" fill-opacity="0" stroke="#001156" stroke-width="21" stroke-linecap="round" stroke-linejoin="round"/>
    </g>
    <path d="M301.5,593.5 C301.5,593.5 428.979,593.5 510.012,593.5 C591.045,593.5 696.783,605.5 720.5,634.5" fill-opacity="0" stroke="#011256" stroke-width="43" stroke-linecap="round"/>
    <path d="M188.535,217.465 C252.581,153.419 356.42,153.419 420.466,217.465" fill-opacity="0" stroke="#001156" stroke-width="42" stroke-linecap="round"/>
    <path d="M604.534,273.5 C674.5,240.5 754.5,239.5 836.465,273.5" fill-opacity="0" stroke="#001156" stroke-width="42" stroke-linecap="round"/>
  </g>
</svg>
