<?xml version="1.0" encoding="UTF-8"?>
<!DOCTYPE svg PUBLIC "-//W3C//DTD SVG 1.1//EN" "http://www.w3.org/Graphics/SVG/1.1/DTD/svg11.dtd">
<svg version="1.1" xmlns="http://www.w3.org/2000/svg" xmlns:xlink="http://www.w3.org/1999/xlink" x="0" y="0" width="1024" height="1024" viewBox="0, 0, 1024, 1024">
  <g id="dark-emoji-0042.png" transform="translate(0, 0)">
    <path d="M512,976 C255.74,976 48,768.26 48,512 C48,255.74 255.74,48 512,48 C768.26,48 976,255.74 976,512 C976,768.26 768.26,976 512,976 z" fill="#0C42F2"/>
    <path d="M512,880 C255.74,880 48,715.241 48,512 C48,308.759 255.74,144 512,144 C768.26,144 976,308.759 976,512 C976,715.241 768.26,880 512,880 z" fill="#3866FF"/>
    <path d="M512.5,976.5 C256.24,976.5 48.5,768.76 48.5,512.5 C48.5,256.24 256.24,48.5 512.5,48.5 C768.76,48.5 976.5,256.24 976.5,512.5 C976.5,768.76 768.76,976.5 512.5,976.5 z" fill-opacity="0" stroke="#001156" stroke-width="41"/>
    <path d="M512,928 C450.144,928 400,902.928 400,872 C400,841.072 450.144,816 512,816 C573.856,816 624,841.072 624,872 C624,902.928 573.856,928 512,928 z" fill="#3866FF"/>
    <path d="M304,483 C227.785,483 166,412.693 166,325.966 C166,239.238 227.785,168.931 304,168.931 C380.215,168.931 442,239.238 442,325.966 C442,412.693 380.215,483 304,483 z" fill="#6887FF"/>
    <g>
      <path d="M304,422 C259.817,422 224,402.228 224,347 C224,291.772 259.817,272 304,272 C348.183,272 384,291.772 384,347 C384,402.228 348.183,422 304,422 z" fill="#CFB400"/>
      <path d="M304,422 C270.863,422 244,419.018 244,384.5 C244,349.982 270.863,322 304,322 C337.137,322 364,349.982 364,384.5 C364,419.018 337.137,422 304,422 z" fill="#FFEE91"/>
      <path d="M304.5,422.5 C260.317,422.5 224.5,402.728 224.5,347.5 C224.5,292.272 260.317,272.5 304.5,272.5 C348.683,272.5 384.5,292.272 384.5,347.5 C384.5,402.728 348.683,422.5 304.5,422.5 z" fill-opacity="0" stroke="#001156" stroke-width="41"/>
    </g>
    <g>
      <path d="M674,611 L648.713,689 L616.713,785 L584.713,689 L552.713,593 L616.713,593 z" fill="#CFB401"/>
      <path d="M664.712,657 L640.712,713 L616.712,769 L592.713,713 L568.713,657 L616.712,657 z" fill="#FFEE91"/>
      <path d="M674.5,611.5 L649.213,689.5 L617.213,785.5 L585.213,689.5 L553.213,593.5 L617.213,593.5 z" fill-opacity="0" stroke="#001156" stroke-width="21" stroke-linecap="round" stroke-linejoin="round"/>
    </g>
    <g>
      <path d="M346.713,611 L372,689 L404,785 L436,689 L468,593 L404,593 z" fill="#CFB401"/>
      <path d="M356.001,657 L380.001,713 L404,769 L428,713 L452,657 L404,657 z" fill="#FFEE91"/>
      <path d="M347.213,611.5 L372.5,689.5 L404.5,785.5 L436.5,689.5 L468.5,593.5 L404.5,593.5 z" fill-opacity="0" stroke="#001156" stroke-width="21" stroke-linecap="round" stroke-linejoin="round"/>
    </g>
    <path d="M301.5,633.5 C333.787,602.5 428.979,593.5 510.012,593.5 C591.045,593.5 696.783,605.5 720.5,634.5" fill-opacity="0" stroke="#011256" stroke-width="43" stroke-linecap="round"/>
    <path d="M186.27,186.633 C264.71,141.346 365.011,168.221 410.298,246.661" fill-opacity="0" stroke="#001156" stroke-width="42" stroke-linecap="round"/>
    <path d="M720,483 C643.785,483 582,412.693 582,325.966 C582,239.238 643.785,168.931 720,168.931 C796.215,168.931 858,239.238 858,325.966 C858,412.693 796.215,483 720,483 z" fill="#6887FF"/>
    <g>
      <path d="M720,422 C675.817,422 640,402.229 640,347 C640,291.772 675.817,272 720,272 C764.183,272 800,291.772 800,347 C800,402.229 764.183,422 720,422 z" fill="#CFB400"/>
      <path d="M720,422 C686.863,422 660,419.018 660,384.5 C660,349.982 686.863,322 720,322 C753.137,322 780,349.982 780,384.5 C780,419.018 753.137,422 720,422 z" fill="#FFEE91"/>
      <path d="M720.5,422.5 C676.317,422.5 640.5,402.729 640.5,347.5 C640.5,292.272 676.317,272.5 720.5,272.5 C764.683,272.5 800.5,292.272 800.5,347.5 C800.5,402.729 764.683,422.5 720.5,422.5 z" fill-opacity="0" stroke="#001156" stroke-width="41"/>
    </g>
    <path d="M614.702,246.661 C659.989,168.221 760.29,141.346 838.73,186.633" fill-opacity="0" stroke="#001156" stroke-width="42" stroke-linecap="round"/>
    <path d="M329.787,403.5 C310.181,403.5 294.287,387.606 294.287,368 C294.287,348.394 310.181,332.5 329.787,332.5 C349.393,332.5 365.287,348.394 365.287,368 C365.287,387.606 349.393,403.5 329.787,403.5 z" fill="#011256"/>
    <path d="M745.787,403.5 C726.181,403.5 710.287,387.606 710.287,368 C710.287,348.394 726.181,332.5 745.787,332.5 C765.393,332.5 781.287,348.394 781.287,368 C781.287,387.606 765.393,403.5 745.787,403.5 z" fill="#011256"/>
  </g>
</svg>
