<?xml version="1.0" encoding="UTF-8"?>
<!DOCTYPE svg PUBLIC "-//W3C//DTD SVG 1.1//EN" "http://www.w3.org/Graphics/SVG/1.1/DTD/svg11.dtd">
<svg version="1.1" xmlns="http://www.w3.org/2000/svg" xmlns:xlink="http://www.w3.org/1999/xlink" x="0" y="0" width="1024" height="1024" viewBox="0, 0, 1024, 1024">
  <g id="dark-emoji-0025.png" transform="translate(0, 0)">
    <path d="M512,976 C255.74,976 48,768.26 48,512 C48,255.74 255.74,48 512,48 C768.26,48 976,255.74 976,512 C976,768.26 768.26,976 512,976 z" fill="#0C42F2"/>
    <path d="M512,880 C255.74,880 48,715.241 48,512 C48,308.759 255.74,144 512,144 C768.26,144 976,308.759 976,512 C976,715.241 768.26,880 512,880 z" fill="#3866FF"/>
    <path d="M512.5,976.5 C256.24,976.5 48.5,768.76 48.5,512.5 C48.5,256.24 256.24,48.5 512.5,48.5 C768.76,48.5 976.5,256.24 976.5,512.5 C976.5,768.76 768.76,976.5 512.5,976.5 z" fill-opacity="0" stroke="#001156" stroke-width="41"/>
    <path d="M512,928 C450.144,928 400,902.928 400,872 C400,841.072 450.144,816 512,816 C573.856,816 624,841.072 624,872 C624,902.928 573.856,928 512,928 z" fill="#3866FF"/>
    <g>
      <path d="M461.287,593 L429.287,689 L397.287,785 L365.287,689 L333.287,593 L397.287,593 z" fill="#CFB401"/>
      <path d="M445.287,657 L421.287,713 L397.287,769 L373.287,713 L349.287,657 L397.287,657 z" fill="#FFEE91"/>
      <path d="M461.787,593.5 L429.787,689.5 L397.787,785.5 L365.787,689.5 L333.787,593.5 L397.787,593.5 z" fill-opacity="0" stroke="#001156" stroke-width="21" stroke-linecap="round" stroke-linejoin="round"/>
    </g>
    <g>
      <path d="M683.287,593 L651.287,689 L619.287,785 L587.287,689 L555.287,593 L619.287,593 z" fill="#CFB401"/>
      <path d="M667.287,657 L643.287,713 L619.287,769 L595.287,713 L571.287,657 L619.287,657 z" fill="#FFEE91"/>
      <path d="M683.787,593.5 L651.787,689.5 L619.787,785.5 L587.787,689.5 L555.787,593.5 L619.787,593.5 z" fill-opacity="0" stroke="#001156" stroke-width="21" stroke-linecap="round" stroke-linejoin="round"/>
    </g>
    <path d="M301.5,593.5 L720.5,593.5" fill-opacity="0" stroke="#011256" stroke-width="43" stroke-linecap="round"/>
    <g>
      <g>
        <path d="M301,464 C256.817,464 221,442.515 221,382.5 C221,322.485 256.817,301 301,301 C345.183,301 381,322.485 381,382.5 C381,442.515 345.183,464 301,464 z" fill="#6887FF"/>
      </g>
      <path d="M221.5,383 L381.5,383" fill-opacity="0" stroke="#011256" stroke-width="42" stroke-linecap="round" stroke-linejoin="round"/>
    </g>
    <g>
      <g>
        <path d="M720,464 C675.817,464 640,442.515 640,382.5 C640,322.485 675.817,301 720,301 C764.183,301 800,322.485 800,382.5 C800,442.515 764.183,464 720,464 z" fill="#6887FF"/>
      </g>
      <path d="M640.5,383 L800.5,383" fill-opacity="0" stroke="#011256" stroke-width="42" stroke-linecap="round" stroke-linejoin="round"/>
    </g>
  </g>
</svg>
