<?xml version="1.0" encoding="UTF-8"?>
<!DOCTYPE svg PUBLIC "-//W3C//DTD SVG 1.1//EN" "http://www.w3.org/Graphics/SVG/1.1/DTD/svg11.dtd">
<svg version="1.1" xmlns="http://www.w3.org/2000/svg" xmlns:xlink="http://www.w3.org/1999/xlink" x="0" y="0" width="1024" height="1024" viewBox="0, 0, 1024, 1024">
  <g id="dark-emoji-0036.png" transform="translate(0, 0)">
    <path d="M512,976 C255.74,976 48,768.26 48,512 C48,255.74 255.74,48 512,48 C768.26,48 976,255.74 976,512 C976,768.26 768.26,976 512,976 z" fill="#0C42F2"/>
    <path d="M512,880 C255.74,880 48,715.241 48,512 C48,308.759 255.74,144 512,144 C768.26,144 976,308.759 976,512 C976,715.241 768.26,880 512,880 z" fill="#3866FF"/>
    <path d="M512.5,976.5 C256.24,976.5 48.5,768.76 48.5,512.5 C48.5,256.24 256.24,48.5 512.5,48.5 C768.76,48.5 976.5,256.24 976.5,512.5 C976.5,768.76 768.76,976.5 512.5,976.5 z" fill-opacity="0" stroke="#001156" stroke-width="41"/>
    <path d="M512,928 C450.144,928 400,902.928 400,872 C400,841.072 450.144,816 512,816 C573.856,816 624,841.072 624,872 C624,902.928 573.856,928 512,928 z" fill="#3866FF"/>
    <g/>
    <g/>
    <g>
      <g>
        <path d="M322.094,461.223 C279.417,472.658 239.259,461.176 223.726,403.206 C208.193,345.236 237.229,315.212 279.906,303.777 C322.584,292.342 362.741,303.824 378.274,361.794 C393.807,419.764 364.771,449.788 322.094,461.223 z" fill="#6887FF"/>
      </g>
      <path d="M224.226,403.706 L378.774,362.294" fill-opacity="0" stroke="#011256" stroke-width="42" stroke-linecap="round" stroke-linejoin="round"/>
    </g>
    <g>
      <g>
        <path d="M698.906,461.223 C656.229,449.788 627.193,419.764 642.726,361.794 C658.259,303.824 698.416,292.342 741.094,303.777 C783.771,315.212 812.807,345.236 797.274,403.206 C781.741,461.176 741.583,472.658 698.906,461.223 z" fill="#6887FF"/>
      </g>
      <path d="M643.226,362.294 L797.774,403.706" fill-opacity="0" stroke="#011256" stroke-width="42" stroke-linecap="round" stroke-linejoin="round"/>
    </g>
    <g>
      <path d="M512,804 C466.989,804 430.5,756.766 430.5,698.5 C430.5,640.234 466.989,593 512,593 C557.011,593 593.5,640.234 593.5,698.5 C593.5,756.766 557.011,804 512,804 z" fill="#AB1500"/>
      <path d="M510.5,804 C471.288,804 439.5,768.687 439.5,725.127 C439.5,681.567 471.288,666.785 510.5,666.785 C549.712,666.785 581.5,681.567 581.5,725.127 C581.5,768.687 549.712,804 510.5,804 z" fill="#D11E01"/>
      <path d="M512.5,804.5 C467.489,804.5 431,757.266 431,699 C431,640.734 467.489,593.5 512.5,593.5 C557.511,593.5 594,640.734 594,699 C594,757.266 557.511,804.5 512.5,804.5 z" fill-opacity="0" stroke="#011256" stroke-width="42"/>
    </g>
    <g>
      <path d="M237.5,128.5 C237.5,128.5 365.5,128.5 365.5,128.5 C365.5,128.5 237.5,256.5 237.5,256.5 L365.5,256.5" fill-opacity="0" stroke="#CFB400" stroke-width="42" stroke-linecap="round" stroke-linejoin="round"/>
      <path d="M237.5,128.5 C237.5,128.5 365.5,128.5 365.5,128.5 C365.5,128.5 237.5,256.5 237.5,256.5 L365.5,256.5" fill-opacity="0" stroke="#FFEE91" stroke-width="21" stroke-linecap="round" stroke-linejoin="round"/>
    </g>
    <g>
      <path d="M448.5,88.5 C448.5,88.5 576.5,88.5 576.5,88.5 C576.5,88.5 448.5,216.5 448.5,216.5 L576.5,216.5" fill-opacity="0" stroke="#CFB400" stroke-width="42" stroke-linecap="round" stroke-linejoin="round"/>
      <path d="M448.5,88.5 C448.5,88.5 576.5,88.5 576.5,88.5 C576.5,88.5 448.5,216.5 448.5,216.5 L576.5,216.5" fill-opacity="0" stroke="#FFEE91" stroke-width="21" stroke-linecap="round" stroke-linejoin="round"/>
    </g>
    <g>
      <path d="M656.5,128.5 C656.5,128.5 784.5,128.5 784.5,128.5 C784.5,128.5 656.5,256.5 656.5,256.5 L784.5,256.5" fill-opacity="0" stroke="#CFB400" stroke-width="42" stroke-linecap="round" stroke-linejoin="round"/>
      <path d="M656.5,128.5 C656.5,128.5 784.5,128.5 784.5,128.5 C784.5,128.5 656.5,256.5 656.5,256.5 L784.5,256.5" fill-opacity="0" stroke="#FFEE91" stroke-width="21" stroke-linecap="round" stroke-linejoin="round"/>
    </g>
  </g>
</svg>
