<?xml version="1.0" encoding="UTF-8"?>
<!DOCTYPE svg PUBLIC "-//W3C//DTD SVG 1.1//EN" "http://www.w3.org/Graphics/SVG/1.1/DTD/svg11.dtd">
<svg version="1.1" xmlns="http://www.w3.org/2000/svg" xmlns:xlink="http://www.w3.org/1999/xlink" x="0" y="0" width="1024" height="1024" viewBox="0, 0, 1024, 1024">
  <g id="dark-emoji-0046.png" transform="translate(0, 0)">
    <path d="M512,976 C255.74,976 48,768.26 48,512 C48,255.74 255.74,48 512,48 C768.26,48 976,255.74 976,512 C976,768.26 768.26,976 512,976 z" fill="#0C42F2"/>
    <path d="M512,880 C255.74,880 48,715.241 48,512 C48,308.759 255.74,144 512,144 C768.26,144 976,308.759 976,512 C976,715.241 768.26,880 512,880 z" fill="#3866FF"/>
    <path d="M512.5,976.5 C256.24,976.5 48.5,768.76 48.5,512.5 C48.5,256.24 256.24,48.5 512.5,48.5 C768.76,48.5 976.5,256.24 976.5,512.5 C976.5,768.76 768.76,976.5 512.5,976.5 z" fill-opacity="0" stroke="#001156" stroke-width="41"/>
    <path d="M512,928 C450.144,928 400,902.928 400,872 C400,841.072 450.144,816 512,816 C573.856,816 624,841.072 624,872 C624,902.928 573.856,928 512,928 z" fill="#3866FF"/>
    <g/>
    <g/>
    <g>
      <path d="M512.5,326.16 C396.796,326.16 341,351.16 303,396.66" fill-opacity="0" stroke="#001156" stroke-width="43" stroke-linecap="round" stroke-linejoin="round"/>
      <path d="M722,396.66 C683,351.16 628.204,326.16 512.5,326.16" fill-opacity="0" stroke="#001156" stroke-width="43" stroke-linecap="round" stroke-linejoin="round"/>
    </g>
    <g>
      <path d="M700.008,367.533 L694.086,283.484 L689.735,211 L649.725,271.598 L609.715,332.196 L654.076,344.082 z" fill="#CFB401"/>
      <path d="M699.232,308.636 L692.998,265.363 L686.763,222.09 L659.727,256.448 L632.692,290.806 L665.962,299.721 z" fill="#FFEE91"/>
      <path d="M700.508,368.033 L694.586,283.984 L690.235,211.5 L650.225,272.098 L610.215,332.696 L654.576,344.582 z" fill-opacity="0" stroke="#001156" stroke-width="21" stroke-linecap="round" stroke-linejoin="round"/>
    </g>
    <g>
      <path d="M324.715,367.533 L330.638,283.484 L334.989,211 L374.998,271.598 L415.008,332.196 L370.648,344.082 z" fill="#CFB401"/>
      <path d="M325.491,308.636 L331.726,265.363 L337.96,222.09 L364.996,256.448 L392.032,290.806 L358.762,299.721 z" fill="#FFEE91"/>
      <path d="M325.215,368.033 L331.138,283.984 L335.489,211.5 L375.498,272.098 L415.508,332.696 L371.148,344.582 z" fill-opacity="0" stroke="#001156" stroke-width="21" stroke-linecap="round" stroke-linejoin="round"/>
    </g>
    <g>
      <path d="M721.5,582.66 C677.317,582.66 641.5,604.145 641.5,664.16 C641.5,724.175 677.317,745.66 721.5,745.66 C765.683,745.66 801.5,724.175 801.5,664.16 C801.5,604.145 765.683,582.66 721.5,582.66 z" fill="#CFB400"/>
      <path d="M721.5,582.66 C688.363,582.66 661.5,585.9 661.5,623.41 C661.5,660.919 688.363,691.326 721.5,691.326 C754.637,691.326 781.5,660.919 781.5,623.41 C781.5,585.9 754.637,582.66 721.5,582.66 z" fill="#FFEE91"/>
      <path d="M722,583.16 C677.817,583.16 642,604.645 642,664.66 C642,724.675 677.817,746.16 722,746.16 C766.183,746.16 802,724.675 802,664.66 C802,604.645 766.183,583.16 722,583.16 z" fill-opacity="0" stroke="#001156" stroke-width="41"/>
    </g>
    <g>
      <path d="M302.5,582.66 C258.317,582.66 222.5,604.145 222.5,664.16 C222.5,724.175 258.317,745.66 302.5,745.66 C346.683,745.66 382.5,724.175 382.5,664.16 C382.5,604.145 346.683,582.66 302.5,582.66 z" fill="#CFB400"/>
      <path d="M302.5,582.66 C269.363,582.66 242.5,585.9 242.5,623.41 C242.5,660.919 269.363,691.326 302.5,691.326 C335.637,691.326 362.5,660.919 362.5,623.41 C362.5,585.9 335.637,582.66 302.5,582.66 z" fill="#FFEE91"/>
      <path d="M303,583.16 C258.817,583.16 223,604.645 223,664.66 C223,724.675 258.817,746.16 303,746.16 C347.183,746.16 383,724.675 383,664.66 C383,604.645 347.183,583.16 303,583.16 z" fill-opacity="0" stroke="#001156" stroke-width="41"/>
    </g>
  </g>
</svg>
