<?xml version="1.0" encoding="UTF-8"?>
<!DOCTYPE svg PUBLIC "-//W3C//DTD SVG 1.1//EN" "http://www.w3.org/Graphics/SVG/1.1/DTD/svg11.dtd">
<svg version="1.1" xmlns="http://www.w3.org/2000/svg" xmlns:xlink="http://www.w3.org/1999/xlink" x="0" y="0" width="1024" height="1024" viewBox="0, 0, 1024, 1024">
  <g id="dark-emoji-0022.png" transform="translate(0, 0)">
    <path d="M512,976 C255.74,976 48,768.26 48,512 C48,255.74 255.74,48 512,48 C768.26,48 976,255.74 976,512 C976,768.26 768.26,976 512,976 z" fill="#0C42F2"/>
    <path d="M512,880 C255.74,880 48,715.241 48,512 C48,308.759 255.74,144 512,144 C768.26,144 976,308.759 976,512 C976,715.241 768.26,880 512,880 z" fill="#3866FF"/>
    <path d="M512.5,976.5 C256.24,976.5 48.5,768.76 48.5,512.5 C48.5,256.24 256.24,48.5 512.5,48.5 C768.76,48.5 976.5,256.24 976.5,512.5 C976.5,768.76 768.76,976.5 512.5,976.5 z" fill-opacity="0" stroke="#001156" stroke-width="41"/>
    <path d="M512,928 C450.144,928 400,902.928 400,872 C400,841.072 450.144,816 512,816 C573.856,816 624,841.072 624,872 C624,902.928 573.856,928 512,928 z" fill="#3866FF"/>
    <g>
      <path d="M461.287,593 L429.287,689 L397.287,785 L365.287,689 L333.287,593 L397.287,593 z" fill="#CFB401"/>
      <path d="M445.287,657 L421.287,713 L397.287,769 L373.287,713 L349.287,657 L397.287,657 z" fill="#FFEE91"/>
      <path d="M461.787,593.5 L429.787,689.5 L397.787,785.5 L365.787,689.5 L333.787,593.5 L397.787,593.5 z" fill-opacity="0" stroke="#001156" stroke-width="21" stroke-linecap="round" stroke-linejoin="round"/>
    </g>
    <g>
      <path d="M674,611 L648.713,689 L616.713,785 L584.713,689 L552.713,593 L616.713,593 z" fill="#CFB401"/>
      <path d="M664.712,657 L640.712,713 L616.712,769 L592.713,713 L568.713,657 L616.712,657 z" fill="#FFEE91"/>
      <path d="M674.5,611.5 L649.213,689.5 L617.213,785.5 L585.213,689.5 L553.213,593.5 L617.213,593.5 z" fill-opacity="0" stroke="#001156" stroke-width="21" stroke-linecap="round" stroke-linejoin="round"/>
    </g>
    <path d="M301.5,593.5 C301.5,593.5 428.979,593.5 510.012,593.5 C591.045,593.5 696.783,605.5 720.5,634.5" fill-opacity="0" stroke="#011256" stroke-width="43" stroke-linecap="round"/>
    <g>
      <path d="M720,464 C675.817,464 640,442.515 640,382.5 C640,322.485 675.817,301 720,301 C764.183,301 800,322.485 800,382.5 C800,442.515 764.183,464 720,464 z" fill="#CFB400"/>
      <path d="M720,464 C686.863,464 660,460.759 660,423.25 C660,385.741 686.863,355.333 720,355.333 C753.137,355.333 780,385.741 780,423.25 C780,460.759 753.137,464 720,464 z" fill="#FFEE91"/>
      <path d="M720.5,464.5 C676.317,464.5 640.5,443.015 640.5,383 C640.5,322.985 676.317,301.5 720.5,301.5 C764.683,301.5 800.5,322.985 800.5,383 C800.5,443.015 764.683,464.5 720.5,464.5 z" fill-opacity="0" stroke="#001156" stroke-width="41"/>
    </g>
    <path d="M604.534,273.5 C674.5,240.5 754.5,239.5 836.465,273.5" fill-opacity="0" stroke="#001156" stroke-width="42" stroke-linecap="round"/>
    <g>
      <path d="M301,464 C256.817,464 221,442.515 221,382.5 C221,322.485 256.817,301 301,301 C345.183,301 381,322.485 381,382.5 C381,442.515 345.183,464 301,464 z" fill="#CFB400"/>
      <path d="M301,464 C267.863,464 241,460.759 241,423.25 C241,385.741 267.863,355.333 301,355.333 C334.137,355.333 361,385.741 361,423.25 C361,460.759 334.137,464 301,464 z" fill="#FFEE91"/>
      <path d="M301.5,464.5 C257.317,464.5 221.5,443.015 221.5,383 C221.5,322.985 257.317,301.5 301.5,301.5 C345.683,301.5 381.5,322.985 381.5,383 C381.5,443.015 345.683,464.5 301.5,464.5 z" fill-opacity="0" stroke="#001156" stroke-width="41"/>
    </g>
    <path d="M185.534,273.5 C255.5,240.5 335.5,239.5 417.465,273.5" fill-opacity="0" stroke="#001156" stroke-width="42" stroke-linecap="round"/>
    <g>
      <path d="M215.407,43 C240.513,43.208 266.137,48.086 288.144,60.64 C294.803,64.439 295.75,65.45 301.652,69.94 C324.927,54.614 352.748,49.056 380.252,48.62 C439.998,48.62 488.431,79.022 488.431,116.525 C488.162,133.367 478.516,148.348 465.358,158.356 C474.466,168.008 479.467,179.123 480.002,192.391 C479.098,221.938 452.037,242.242 426.204,251.049 C416.147,278.511 384.731,293.165 358.171,299.26 C345.92,302.071 333.518,303.181 320.976,303.38 C303.34,303.436 285.794,300.679 269.107,294.99 C260.019,299.541 250.244,302.427 240.426,304.88 C228.175,307.691 215.773,308.801 203.23,309 C143.485,309 95.051,278.598 95.051,241.095 C95.233,236.569 95.108,236.217 96.297,230.754 C96.563,229.532 97.072,228.377 97.459,227.188 C75.963,216.752 56.728,198.867 55.713,173.658 C56.555,143.487 82.508,126.307 107.574,115.679 C107.182,113.248 107.385,114.831 107.227,110.905 C107.227,73.402 155.661,43 215.407,43 z" fill="#6887FF"/>
      <path d="M215.907,43.5 C241.013,43.708 266.637,48.586 288.644,61.14 C295.303,64.939 296.25,65.95 302.152,70.44 C325.427,55.114 353.248,49.556 380.752,49.12 C440.498,49.12 488.931,79.522 488.931,117.025 C488.662,133.867 479.016,148.848 465.858,158.856 C474.966,168.508 479.967,179.623 480.502,192.891 C479.598,222.438 452.537,242.742 426.704,251.549 C416.647,279.011 385.231,293.665 358.671,299.76 C346.42,302.571 334.018,303.681 321.476,303.88 C303.84,303.936 286.294,301.179 269.607,295.49 C260.519,300.041 250.744,302.927 240.926,305.38 C228.675,308.191 216.273,309.301 203.73,309.5 C143.985,309.5 95.551,279.098 95.551,241.595 C95.733,237.069 95.608,236.717 96.797,231.254 C97.063,230.032 97.572,228.877 97.959,227.688 C76.463,217.252 57.228,199.367 56.213,174.158 C57.055,143.987 83.008,126.807 108.074,116.179 C107.682,113.748 107.885,115.331 107.727,111.405 C107.727,73.902 156.161,43.5 215.907,43.5 z" fill-opacity="0" stroke="#011256" stroke-width="21"/>
    </g>
    <g>
      <path d="M443.154,301.5 C410.691,301.5 384.376,286.054 384.376,267 C384.376,247.946 410.691,232.5 443.154,232.5 C475.616,232.5 501.931,247.946 501.931,267 C501.931,286.054 475.616,301.5 443.154,301.5 z" fill="#6887FF"/>
      <path d="M443.154,301.5 C410.691,301.5 384.376,286.054 384.376,267 C384.376,247.946 410.691,232.5 443.154,232.5 C475.616,232.5 501.931,247.946 501.931,267 C501.931,286.054 475.616,301.5 443.154,301.5 z" fill-opacity="0" stroke="#011256" stroke-width="21"/>
    </g>
    <g>
      <path d="M500.376,332.5 C476.382,332.5 456.931,321.083 456.931,307 C456.931,292.917 476.382,281.5 500.376,281.5 C524.369,281.5 543.82,292.917 543.82,307 C543.82,321.083 524.369,332.5 500.376,332.5 z" fill="#6887FF"/>
      <path d="M500.376,332.5 C476.382,332.5 456.931,321.083 456.931,307 C456.931,292.917 476.382,281.5 500.376,281.5 C524.369,281.5 543.82,292.917 543.82,307 C543.82,321.083 524.369,332.5 500.376,332.5 z" fill-opacity="0" stroke="#011256" stroke-width="21"/>
    </g>
    <g>
      <path d="M512.5,371.5 C494.152,371.5 479.278,362.77 479.278,352 C479.278,341.23 494.152,332.5 512.5,332.5 C530.848,332.5 545.722,341.23 545.722,352 C545.722,362.77 530.848,371.5 512.5,371.5 z" fill="#6887FF"/>
      <path d="M512.5,371.5 C494.152,371.5 479.278,362.77 479.278,352 C479.278,341.23 494.152,332.5 512.5,332.5 C530.848,332.5 545.722,341.23 545.722,352 C545.722,362.77 530.848,371.5 512.5,371.5 z" fill-opacity="0" stroke="#011256" stroke-width="21"/>
    </g>
  </g>
</svg>
