<?xml version="1.0" encoding="UTF-8"?>
<!DOCTYPE svg PUBLIC "-//W3C//DTD SVG 1.1//EN" "http://www.w3.org/Graphics/SVG/1.1/DTD/svg11.dtd">
<svg version="1.1" xmlns="http://www.w3.org/2000/svg" xmlns:xlink="http://www.w3.org/1999/xlink" x="0" y="0" width="1024" height="1024" viewBox="0, 0, 1024, 1024">
  <g id="dark-emoji-0043.png" transform="translate(0, 0)">
    <path d="M512,976 C255.74,976 48,768.26 48,512 C48,255.74 255.74,48 512,48 C768.26,48 976,255.74 976,512 C976,768.26 768.26,976 512,976 z" fill="#0C42F2"/>
    <path d="M512,880 C255.74,880 48,715.241 48,512 C48,308.759 255.74,144 512,144 C768.26,144 976,308.759 976,512 C976,715.241 768.26,880 512,880 z" fill="#3866FF"/>
    <path d="M512.5,976.5 C256.24,976.5 48.5,768.76 48.5,512.5 C48.5,256.24 256.24,48.5 512.5,48.5 C768.76,48.5 976.5,256.24 976.5,512.5 C976.5,768.76 768.76,976.5 512.5,976.5 z" fill-opacity="0" stroke="#001156" stroke-width="41"/>
    <path d="M512,928 C450.144,928 400,902.928 400,872 C400,841.072 450.144,816 512,816 C573.856,816 624,841.072 624,872 C624,902.928 573.856,928 512,928 z" fill="#3866FF"/>
    <g>
      <path d="M434.26,579.707 L428.197,680.718 L422.134,781.729 L366.378,697.282 L310.621,612.836 L372.441,596.271 z" fill="#CFB401"/>
      <path d="M435.37,645.667 L426.681,705.971 L417.993,766.274 L380.317,718.394 L342.641,670.514 L389.005,658.091 z" fill="#FFEE91"/>
      <path d="M434.76,580.207 L428.697,681.218 L422.634,782.229 L366.878,697.782 L311.121,613.336 L372.941,596.771 z" fill-opacity="0" stroke="#001156" stroke-width="21" stroke-linecap="round" stroke-linejoin="round"/>
    </g>
    <g>
      <path d="M705.953,612.836 L650.197,697.282 L594.441,781.729 L588.378,680.718 L582.315,579.707 L644.134,596.271 z" fill="#CFB401"/>
      <path d="M673.934,670.514 L636.258,718.394 L598.582,766.274 L589.893,705.971 L581.205,645.667 L627.569,658.091 z" fill="#FFEE91"/>
      <path d="M706.453,613.336 L650.697,697.782 L594.941,782.229 L588.878,681.218 L582.815,580.207 L644.634,596.771 z" fill-opacity="0" stroke="#001156" stroke-width="21" stroke-linecap="round" stroke-linejoin="round"/>
    </g>
    <path d="M301.5,620.5 C301.5,620.5 383.5,580.5 512.5,580.5 C641.5,580.5 720.5,620.5 720.5,620.5" fill-opacity="0" stroke="#011256" stroke-width="43" stroke-linecap="round"/>
    <g>
      <g>
        <path d="M741.094,488.551 C698.416,501.922 658.259,488.495 642.726,420.711 C627.193,352.927 656.229,317.82 698.906,304.449 C741.583,291.078 781.741,304.505 797.274,372.289 C812.807,440.073 783.771,475.179 741.094,488.551 z" fill="#6887FF"/>
      </g>
      <path d="M793.048,445.117 L638.5,403.706" fill-opacity="0" stroke="#011256" stroke-width="42" stroke-linecap="round" stroke-linejoin="round"/>
    </g>
    <g>
      <g>
        <path d="M279.906,488.551 C237.229,475.18 208.193,440.073 223.726,372.289 C239.259,304.505 279.417,291.078 322.094,304.449 C364.771,317.821 393.807,352.927 378.274,420.711 C362.741,488.495 322.584,501.922 279.906,488.551 z" fill="#6887FF"/>
      </g>
      <path d="M224.226,445.117 L378.774,403.706" fill-opacity="0" stroke="#011256" stroke-width="42" stroke-linecap="round" stroke-linejoin="round"/>
    </g>
    <path d="M385.926,238.5 C340.638,316.94 240.337,343.815 161.897,298.528" fill-opacity="0" stroke="#001156" stroke-width="41" stroke-linecap="round"/>
    <path d="M862.528,298.528 C784.088,343.815 683.787,316.94 638.5,238.5" fill-opacity="0" stroke="#001156" stroke-width="41" stroke-linecap="round"/>
    <g>
      <path d="M124.271,414.566 C91.12,414.566 66.389,393.593 64.246,356.077 C60.961,298.598 91.12,176 124.271,176 C157.423,176 188.557,289.334 184.297,356.077 C181.082,406.456 157.423,414.566 124.271,414.566 z" fill="#830E00"/>
      <path d="M124.271,414.566 C91.12,414.566 66.389,399.813 64.246,373.422 C60.961,332.987 91.12,246.745 124.271,246.745 C157.423,246.745 188.557,326.47 184.297,373.422 C181.082,408.861 157.423,414.566 124.271,414.566 z" fill="#D11E01"/>
      <path d="M124.771,415.066 C91.62,415.066 66.889,394.093 64.746,356.577 C61.461,299.098 91.62,176.5 124.771,176.5 C157.923,176.5 189.057,289.834 184.797,356.577 C181.582,406.956 157.923,415.066 124.771,415.066 z" fill-opacity="0" stroke="#011256" stroke-width="21"/>
    </g>
  </g>
</svg>
