<?xml version="1.0" encoding="UTF-8"?>
<!DOCTYPE svg PUBLIC "-//W3C//DTD SVG 1.1//EN" "http://www.w3.org/Graphics/SVG/1.1/DTD/svg11.dtd">
<svg version="1.1" xmlns="http://www.w3.org/2000/svg" xmlns:xlink="http://www.w3.org/1999/xlink" x="0" y="0" width="1024" height="1024" viewBox="0, 0, 1024, 1024">
  <g id="dark-emoji-0020.png" transform="translate(0, 0)">
    <path d="M512,976 C255.74,976 48,768.26 48,512 C48,255.74 255.74,48 512,48 C768.26,48 976,255.74 976,512 C976,768.26 768.26,976 512,976 z" fill="#0C42F2"/>
    <path d="M512,880 C255.74,880 48,715.241 48,512 C48,308.759 255.74,144 512,144 C768.26,144 976,308.759 976,512 C976,715.241 768.26,880 512,880 z" fill="#3866FF"/>
    <path d="M512.5,976.5 C256.24,976.5 48.5,768.76 48.5,512.5 C48.5,256.24 256.24,48.5 512.5,48.5 C768.76,48.5 976.5,256.24 976.5,512.5 C976.5,768.76 768.76,976.5 512.5,976.5 z" fill-opacity="0" stroke="#001156" stroke-width="41"/>
    <path d="M512,928 C450.144,928 400,902.928 400,872 C400,841.072 450.144,816 512,816 C573.856,816 624,841.072 624,872 C624,902.928 573.856,928 512,928 z" fill="#3866FF"/>
    <path d="M864,672 C810.981,672 768,629.019 768,576 C768,522.981 810.981,480 864,480 C917.019,480 960,522.981 960,576 C960,629.019 917.019,672 864,672 z" fill="#6887FF"/>
    <path d="M160,672 C106.981,672 64,629.019 64,576 C64,522.981 106.981,480 160,480 C213.019,480 256,522.981 256,576 C256,629.019 213.019,672 160,672 z" fill="#6887FF"/>
    <g>
      <path d="M304,413.738 C259.817,413.738 224,491.421 224,390.583 C224,289.745 259.817,272 304,272 C348.183,272 384,289.745 384,390.583 C384,491.421 348.183,413.738 304,413.738 z" fill="#CFB400"/>
      <path d="M304,445.49 C270.863,445.49 224,510.045 224,432 C224,353.955 270.863,335.016 304,335.016 C337.137,335.016 384,353.955 384,432 C384,510.045 337.137,445.49 304,445.49 z" fill="#FFEE91"/>
      <path d="M304.5,445.99 C208.5,445.99 224.5,519.706 224.5,420.368 C224.5,321.029 260.317,272.5 304.5,272.5 C348.683,272.5 384.5,321.029 384.5,420.368 C384.5,519.706 370.272,445.99 304.5,445.99 z" fill-opacity="0" stroke="#001156" stroke-width="41" stroke-linecap="round" stroke-linejoin="round"/>
    </g>
    <g>
      <path d="M721,413.738 C676.817,413.738 641,491.421 641,390.583 C641,289.745 676.817,272 721,272 C765.183,272 801,289.745 801,390.583 C801,491.421 765.183,413.738 721,413.738 z" fill="#CFB400"/>
      <path d="M721,445.49 C687.863,445.49 641,510.045 641,432 C641,353.955 687.863,335.016 721,335.016 C754.137,335.016 801,353.955 801,432 C801,510.045 754.137,445.49 721,445.49 z" fill="#FFEE91"/>
      <path d="M721.5,445.99 C625.5,445.99 641.5,519.706 641.5,420.367 C641.5,321.029 677.317,272.5 721.5,272.5 C765.683,272.5 801.5,321.029 801.5,420.367 C801.5,519.706 787.273,445.99 721.5,445.99 z" fill-opacity="0" stroke="#001156" stroke-width="41" stroke-linecap="round" stroke-linejoin="round"/>
    </g>
    <g>
      <path d="M509.037,799 C431.575,799 395.876,754.234 368.779,720.127 C323,662.506 431.575,672 509.037,672 C586.499,672 691,662.506 649.294,720.127 C623.754,755.414 586.499,799 509.037,799 z" fill="#AB1500"/>
      <path d="M512,799 C423.082,799 351,768 351,732 C351,673.734 423.082,732 512,732 C600.918,732 673,672.734 673,731 C673,768 600.918,799 512,799 z" fill="#D11E01"/>
      <path d="M512.5,799.5 C423.582,799.5 351.5,752.266 351.5,694 C351.5,635.734 511.5,677.5 511.5,677.5 C511.5,677.5 673.5,635.734 673.5,694 C673.5,752.266 601.418,799.5 512.5,799.5 z" fill-opacity="0" stroke="#011256" stroke-width="42"/>
    </g>
    <g>
      <path d="M47.145,818.438 C58.212,776.053 101.857,782.805 153.837,796.734 C161.45,798.763 169.094,800.677 176.73,802.62 C160.888,793.813 168.107,797.806 155.171,790.466 C66.718,740.278 96.485,709.215 98.713,705.171 C119.061,669.398 158.948,683.069 200.81,711.417 C239.252,737.449 256.714,753.461 261.879,757.248 C272.486,765.027 285.104,754.371 290.871,752.299 C290.778,740.62 279.315,689.522 283.799,678.759 C290.871,661.789 307.134,646.94 322.858,642.064 C353.785,632.475 354.936,678.122 350.49,717.65 C349.128,728.147 348.755,738.786 346.991,749.234 C366.79,756.088 384.024,769.507 390.543,789.99 C400.78,822.156 388.068,866.007 378.787,896.763 C363.702,946.753 336.832,973.623 299.083,991.028 C278.707,1000.422 233.595,992.008 214.537,966.722 C202.909,951.296 174.656,964.597 156.799,970.367 C120.458,982.108 91.038,982.86 86.317,935.227 C82.274,894.427 161.602,900.071 167.933,899.991 C154.68,897.627 141.687,894.044 128.69,890.581 C76.71,876.653 34.518,866.801 47.145,818.438 z" fill="#6887FF"/>
      <path d="M47.145,818.438 C58.212,776.053 101.857,782.805 153.837,796.734 C161.45,798.763 169.094,800.677 176.73,802.62 C160.888,793.813 168.107,797.806 155.171,790.466 C66.718,740.278 96.485,709.215 98.713,705.171 C119.061,669.398 158.948,683.069 200.81,711.417 C239.252,737.449 256.714,753.461 261.879,757.248 C272.486,765.027 285.104,754.371 290.871,752.299 C290.778,740.62 279.315,689.522 283.799,678.759 C290.871,661.789 307.134,646.94 322.858,642.064 C353.785,632.475 354.936,678.122 350.49,717.65 C349.128,728.147 348.755,738.786 346.991,749.234 C366.79,756.088 384.024,769.507 390.543,789.99 C400.78,822.156 388.068,866.007 378.787,896.763 C363.702,946.753 336.832,973.623 299.083,991.028 C278.707,1000.422 233.595,992.008 214.537,966.722 C202.909,951.296 174.656,964.597 156.799,970.367 C120.458,982.108 91.038,982.86 86.317,935.227 C82.274,894.427 161.602,900.071 167.933,899.991 C154.68,897.627 141.687,894.044 128.69,890.581 C76.71,876.653 34.518,866.801 47.145,818.438 z" fill-opacity="0" stroke="#00106F" stroke-width="21" stroke-linecap="round" stroke-linejoin="round"/>
    </g>
    <g>
      <path d="M978.693,818.438 C967.626,776.053 923.981,782.805 872.001,796.734 C864.387,798.763 856.744,800.677 849.108,802.62 C864.95,793.813 857.73,797.806 870.667,790.466 C959.12,740.278 929.352,709.215 927.125,705.171 C906.776,669.398 866.89,683.069 825.028,711.417 C786.586,737.449 769.124,753.461 763.958,757.248 C753.352,765.027 740.733,754.371 734.967,752.299 C735.06,740.62 746.523,689.522 742.038,678.759 C734.967,661.789 718.704,646.94 702.98,642.064 C672.053,632.475 670.902,678.122 675.348,717.65 C676.71,728.147 677.083,738.786 678.847,749.234 C659.048,756.088 641.814,769.507 635.295,789.99 C625.058,822.156 637.77,866.007 647.051,896.763 C662.135,946.753 689.005,973.623 726.755,991.028 C747.13,1000.422 792.243,992.008 811.301,966.722 C822.928,951.296 851.182,964.597 869.038,970.367 C905.38,982.108 934.8,982.86 939.52,935.227 C943.564,894.427 864.235,900.071 857.904,899.991 C871.158,897.627 884.151,894.044 897.147,890.581 C949.127,876.653 991.319,866.801 978.693,818.438 z" fill="#6887FF"/>
      <path d="M978.693,818.438 C967.626,776.053 923.981,782.805 872.001,796.734 C864.387,798.763 856.744,800.677 849.108,802.62 C864.95,793.813 857.73,797.806 870.667,790.466 C959.12,740.278 929.352,709.215 927.125,705.171 C906.776,669.398 866.89,683.069 825.028,711.417 C786.586,737.449 769.124,753.461 763.958,757.248 C753.352,765.027 740.733,754.371 734.967,752.299 C735.06,740.62 746.523,689.522 742.038,678.759 C734.967,661.789 718.704,646.94 702.98,642.064 C672.053,632.475 670.902,678.122 675.348,717.65 C676.71,728.147 677.083,738.786 678.847,749.234 C659.048,756.088 641.814,769.507 635.295,789.99 C625.058,822.156 637.77,866.007 647.051,896.763 C662.135,946.753 689.005,973.623 726.755,991.028 C747.13,1000.422 792.243,992.008 811.301,966.722 C822.928,951.296 851.182,964.597 869.038,970.367 C905.38,982.108 934.8,982.86 939.52,935.227 C943.564,894.427 864.235,900.071 857.904,899.991 C871.158,897.627 884.151,894.044 897.147,890.581 C949.127,876.653 991.319,866.801 978.693,818.438 z" fill-opacity="0" stroke="#00106F" stroke-width="21" stroke-linecap="round" stroke-linejoin="round"/>
    </g>
  </g>
</svg>
