<?xml version="1.0" encoding="UTF-8"?>
<!DOCTYPE svg PUBLIC "-//W3C//DTD SVG 1.1//EN" "http://www.w3.org/Graphics/SVG/1.1/DTD/svg11.dtd">
<svg version="1.1" xmlns="http://www.w3.org/2000/svg" xmlns:xlink="http://www.w3.org/1999/xlink" x="0" y="0" width="1024" height="1024" viewBox="0, 0, 1024, 1024">
  <g id="dark-emoji-0034.png" transform="translate(0, 0)">
    <path d="M512,976 C255.74,976 48,768.26 48,512 C48,255.74 255.74,48 512,48 C768.26,48 976,255.74 976,512 C976,768.26 768.26,976 512,976 z" fill="#0C42F2"/>
    <path d="M512,880 C255.74,880 48,715.241 48,512 C48,308.759 255.74,144 512,144 C768.26,144 976,308.759 976,512 C976,715.241 768.26,880 512,880 z" fill="#3866FF"/>
    <path d="M512.5,976.5 C256.24,976.5 48.5,768.76 48.5,512.5 C48.5,256.24 256.24,48.5 512.5,48.5 C768.76,48.5 976.5,256.24 976.5,512.5 C976.5,768.76 768.76,976.5 512.5,976.5 z" fill-opacity="0" stroke="#001156" stroke-width="41"/>
    <path d="M510.5,721 C394.796,721 301,689.436 301,650.5 C301,611.564 394.796,580 510.5,580 C626.204,580 720,611.564 720,650.5 C720,689.436 626.204,721 510.5,721 z" fill="#AB1500"/>
    <path d="M512,928 C450.144,928 400,902.928 400,872 C400,841.072 450.144,816 512,816 C573.856,816 624,841.072 624,872 C624,902.928 573.856,928 512,928 z" fill="#3866FF"/>
    <g/>
    <g/>
    <path d="M390.425,259.306 C311.985,214.019 211.685,240.894 166.397,319.334" fill-opacity="0" stroke="#001156" stroke-width="41" stroke-linecap="round"/>
    <path d="M853.465,319.334 C808.178,240.894 707.877,214.019 629.437,259.306" fill-opacity="0" stroke="#001156" stroke-width="41" stroke-linecap="round"/>
    <g>
      <g>
        <path d="M300,464.28 C255.817,464.28 220,442.795 220,382.78 C220,322.766 255.817,301.28 300,301.28 C344.183,301.28 380,322.766 380,382.78 C380,442.795 344.183,464.28 300,464.28 z" fill="#6887FF"/>
      </g>
      <path d="M220.5,383.28 L380.5,383.28" fill-opacity="0" stroke="#011256" stroke-width="42" stroke-linecap="round" stroke-linejoin="round"/>
    </g>
    <g>
      <g>
        <path d="M719,464.28 C674.817,464.28 639,442.795 639,382.78 C639,322.766 674.817,301.28 719,301.28 C763.183,301.28 799,322.766 799,382.78 C799,442.795 763.183,464.28 719,464.28 z" fill="#6887FF"/>
      </g>
      <path d="M639.5,383.281 L799.5,383.281" fill-opacity="0" stroke="#011256" stroke-width="42" stroke-linecap="round" stroke-linejoin="round"/>
    </g>
    <path d="M510.5,721 C394.796,721 301,703.262 301,681.382 C301,631.565 394.796,641.764 510.5,641.764 C626.204,641.764 720,641.764 720,681.382 C720,703.262 626.204,721 510.5,721 z" fill="#D11E01"/>
    <g>
      <path d="M511,721.5 C395.296,721.5 301.5,689.936 301.5,651" fill-opacity="0" stroke="#001156" stroke-width="43"/>
      <path d="M720.5,651 C720.5,689.936 626.704,721.5 511,721.5" fill-opacity="0" stroke="#001156" stroke-width="43"/>
    </g>
    <g>
      <path d="M442.26,579.707 L436.197,680.718 L430.134,781.729 L374.378,697.282 L318.621,612.836 L380.441,596.271 z" fill="#CFB401"/>
      <path d="M443.37,645.667 L434.681,705.971 L425.993,766.274 L388.317,718.394 L350.641,670.514 L397.005,658.091 z" fill="#FFEE91"/>
      <path d="M442.76,580.207 L436.697,681.218 L430.634,782.229 L374.878,697.782 L319.121,613.336 L380.941,596.771 z" fill-opacity="0" stroke="#001156" stroke-width="21" stroke-linecap="round" stroke-linejoin="round"/>
    </g>
    <g>
      <path d="M703.953,612.836 L648.197,697.282 L592.441,781.729 L586.378,680.718 L580.315,579.707 L642.134,596.271 z" fill="#CFB401"/>
      <path d="M671.934,670.514 L634.258,718.394 L596.582,766.274 L587.893,705.971 L579.205,645.667 L625.569,658.091 z" fill="#FFEE91"/>
      <path d="M704.453,613.336 L648.697,697.782 L592.941,782.229 L586.878,681.218 L580.815,580.207 L642.634,596.771 z" fill-opacity="0" stroke="#001156" stroke-width="21" stroke-linecap="round" stroke-linejoin="round"/>
    </g>
    <path d="M301.5,651 C301.5,612.064 395.296,580.5 511,580.5 C626.704,580.5 720.5,612.064 720.5,651" fill-opacity="0" stroke="#001156" stroke-width="43"/>
  </g>
</svg>
