<?xml version="1.0" encoding="UTF-8"?>
<!DOCTYPE svg PUBLIC "-//W3C//DTD SVG 1.1//EN" "http://www.w3.org/Graphics/SVG/1.1/DTD/svg11.dtd">
<svg version="1.1" xmlns="http://www.w3.org/2000/svg" xmlns:xlink="http://www.w3.org/1999/xlink" x="0" y="0" width="1024" height="1024" viewBox="0, 0, 1024, 1024">
  <g id="dark-emoji-0014.png" transform="translate(0, 0)">
    <path d="M512,976 C255.74,976 48,768.26 48,512 C48,255.74 255.74,48 512,48 C768.26,48 976,255.74 976,512 C976,768.26 768.26,976 512,976 z" fill="#0C42F2"/>
    <path d="M512,880 C255.74,880 48,715.241 48,512 C48,308.759 255.74,144 512,144 C768.26,144 976,308.759 976,512 C976,715.241 768.26,880 512,880 z" fill="#3866FF"/>
    <path d="M512.5,976.5 C256.24,976.5 48.5,768.76 48.5,512.5 C48.5,256.24 256.24,48.5 512.5,48.5 C768.76,48.5 976.5,256.24 976.5,512.5 C976.5,768.76 768.76,976.5 512.5,976.5 z" fill-opacity="0" stroke="#001156" stroke-width="41"/>
    <path d="M512,928 C450.144,928 400,902.928 400,872 C400,841.072 450.144,816 512,816 C573.856,816 624,841.072 624,872 C624,902.928 573.856,928 512,928 z" fill="#3866FF"/>
    <g>
      <path d="M304,464 C259.817,464 224,438.692 224,368 C224,297.308 259.817,224 304,224 C348.183,224 384,297.308 384,368 C384,438.692 348.183,464 304,464 z" fill="#CFB400"/>
      <path d="M304,464 C270.863,464 244,460.183 244,416 C244,371.817 270.863,336 304,336 C337.137,336 364,371.817 364,416 C364,460.183 337.137,464 304,464 z" fill="#FFEE91"/>
      <path d="M304.5,480.5 C260.317,480.5 224.5,439.193 224.5,368.5 C224.5,297.808 260.317,224.5 304.5,224.5 C348.683,224.5 384.5,297.808 384.5,368.5 C384.5,439.193 348.683,480.5 304.5,480.5 z" fill-opacity="0" stroke="#001156" stroke-width="41"/>
    </g>
    <g>
      <path d="M720,464 C675.817,464 640,438.692 640,368 C640,297.308 675.817,224 720,224 C764.183,224 800,297.308 800,368 C800,438.692 764.183,464 720,464 z" fill="#CFB400"/>
      <path d="M720,464 C686.863,464 660,460.183 660,416 C660,371.817 686.863,336 720,336 C753.137,336 780,371.817 780,416 C780,460.183 753.137,464 720,464 z" fill="#FFEE91"/>
      <path d="M720.5,480.5 C676.317,480.5 640.5,439.193 640.5,368.5 C640.5,297.808 676.317,224.5 720.5,224.5 C764.683,224.5 800.5,297.808 800.5,368.5 C800.5,439.193 764.683,480.5 720.5,480.5 z" fill-opacity="0" stroke="#001156" stroke-width="41"/>
    </g>
    <g>
      <path d="M512,804 C466.989,804 430.5,756.766 430.5,698.5 C430.5,640.234 466.989,593 512,593 C557.011,593 593.5,640.234 593.5,698.5 C593.5,756.766 557.011,804 512,804 z" fill="#AB1500"/>
      <path d="M510.5,804 C471.288,804 439.5,768.687 439.5,725.127 C439.5,681.567 471.288,666.785 510.5,666.785 C549.712,666.785 581.5,681.567 581.5,725.127 C581.5,768.687 549.712,804 510.5,804 z" fill="#D11E01"/>
      <path d="M512.5,804.5 C467.489,804.5 431,757.266 431,699 C431,640.734 467.489,593.5 512.5,593.5 C557.511,593.5 594,640.734 594,699 C594,757.266 557.511,804.5 512.5,804.5 z" fill-opacity="0" stroke="#011256" stroke-width="42"/>
    </g>
    <path d="M864,672 C810.981,672 768,629.019 768,576 C768,522.981 810.981,480 864,480 C917.019,480 960,522.981 960,576 C960,629.019 917.019,672 864,672 z" fill="#6887FF"/>
    <path d="M160,672 C106.981,672 64,629.019 64,576 C64,522.981 106.981,480 160,480 C213.019,480 256,522.981 256,576 C256,629.019 213.019,672 160,672 z" fill="#6887FF"/>
    <g>
      <path d="M323.436,821.62 C323.436,821.62 130.616,852.278 76.698,798.36 C22.781,744.443 106.893,664.438 193.013,691.198 C168.432,609 246.258,520.965 300.176,574.883 C354.093,628.8 323.436,821.62 323.436,821.62 z" fill="#AB1500"/>
      <path d="M323.917,821.14 C323.917,821.14 158.095,861.494 116.379,819.778 C74.662,778.061 165.252,718.923 236.303,735.208 C221.573,667.323 280.838,571.885 322.555,613.602 C364.271,655.318 323.917,821.14 323.917,821.14 z" fill="#D11E01"/>
      <path d="M323.936,822.12 C323.936,822.12 131.116,852.778 77.198,798.86 C23.281,744.943 107.393,664.938 193.513,691.698 C168.932,609.5 246.758,521.465 300.676,575.383 C354.593,629.3 323.936,822.12 323.936,822.12 z" fill-opacity="0" stroke="#011256" stroke-width="42"/>
    </g>
  </g>
</svg>
