<?xml version="1.0" encoding="UTF-8"?>
<!DOCTYPE svg PUBLIC "-//W3C//DTD SVG 1.1//EN" "http://www.w3.org/Graphics/SVG/1.1/DTD/svg11.dtd">
<svg version="1.1" xmlns="http://www.w3.org/2000/svg" xmlns:xlink="http://www.w3.org/1999/xlink" x="0" y="0" width="1024" height="1024" viewBox="0, 0, 1024, 1024">
  <g id="dark-emoji-0017.png" transform="translate(0, 0)">
    <path d="M512,976 C255.74,976 48,768.26 48,512 C48,255.74 255.74,48 512,48 C768.26,48 976,255.74 976,512 C976,768.26 768.26,976 512,976 z" fill="#0C42F2"/>
    <path d="M512,880 C255.74,880 48,715.241 48,512 C48,308.759 255.74,144 512,144 C768.26,144 976,308.759 976,512 C976,715.241 768.26,880 512,880 z" fill="#3866FF"/>
    <path d="M512.5,976.5 C256.24,976.5 48.5,768.76 48.5,512.5 C48.5,256.24 256.24,48.5 512.5,48.5 C768.76,48.5 976.5,256.24 976.5,512.5 C976.5,768.76 768.76,976.5 512.5,976.5 z" fill-opacity="0" stroke="#001156" stroke-width="41"/>
    <path d="M512,928 C450.144,928 400,902.928 400,872 C400,841.072 450.144,816 512,816 C573.856,816 624,841.072 624,872 C624,902.928 573.856,928 512,928 z" fill="#3866FF"/>
    <g>
      <path d="M509.037,799 C431.575,799 395.876,754.234 368.779,720.127 C323,662.506 431.575,672 509.037,672 C586.499,672 691,662.506 649.294,720.127 C623.754,755.414 586.499,799 509.037,799 z" fill="#AB1500"/>
      <path d="M512,799 C423.082,799 351,768 351,732 C351,673.734 423.082,732 512,732 C600.918,732 673,672.734 673,731 C673,768 600.918,799 512,799 z" fill="#D11E01"/>
      <path d="M512.5,799.5 C423.582,799.5 351.5,752.266 351.5,694 C351.5,635.734 511.5,677.5 511.5,677.5 C511.5,677.5 673.5,635.734 673.5,694 C673.5,752.266 601.418,799.5 512.5,799.5 z" fill-opacity="0" stroke="#011256" stroke-width="42"/>
    </g>
    <path d="M864,672 C810.981,672 768,629.019 768,576 C768,522.981 810.981,480 864,480 C917.019,480 960,522.981 960,576 C960,629.019 917.019,672 864,672 z" fill="#6887FF"/>
    <path d="M160,672 C106.981,672 64,629.019 64,576 C64,522.981 106.981,480 160,480 C213.019,480 256,522.981 256,576 C256,629.019 213.019,672 160,672 z" fill="#6887FF"/>
    <g>
      <g>
        <path d="M301,464 C256.817,464 221,442.515 221,382.5 C221,322.485 256.817,301 301,301 C345.183,301 381,322.485 381,382.5 C381,442.515 345.183,464 301,464 z" fill="#6887FF"/>
      </g>
      <path d="M221.5,383 L381.5,383" fill-opacity="0" stroke="#011256" stroke-width="42" stroke-linecap="round" stroke-linejoin="round"/>
    </g>
    <g>
      <g>
        <path d="M720,464 C675.817,464 640,442.515 640,382.5 C640,322.485 675.817,301 720,301 C764.183,301 800,322.485 800,382.5 C800,442.515 764.183,464 720,464 z" fill="#6887FF"/>
      </g>
      <path d="M640.5,383 L800.5,383" fill-opacity="0" stroke="#011256" stroke-width="42" stroke-linecap="round" stroke-linejoin="round"/>
    </g>
    <path d="M385.926,238.5 C340.638,316.94 240.337,343.815 161.897,298.528" fill-opacity="0" stroke="#001156" stroke-width="41" stroke-linecap="round"/>
    <path d="M862.528,298.528 C784.088,343.815 683.787,316.94 638.5,238.5" fill-opacity="0" stroke="#001156" stroke-width="41" stroke-linecap="round"/>
  </g>
</svg>
