<?xml version="1.0" encoding="UTF-8"?>
<!DOCTYPE svg PUBLIC "-//W3C//DTD SVG 1.1//EN" "http://www.w3.org/Graphics/SVG/1.1/DTD/svg11.dtd">
<svg version="1.1" xmlns="http://www.w3.org/2000/svg" xmlns:xlink="http://www.w3.org/1999/xlink" x="0" y="0" width="1024" height="1024" viewBox="0, 0, 1024, 1024">
  <g id="dark-emoji-0011.png" transform="translate(0, 0)">
    <path d="M512,976 C255.74,976 48,768.26 48,512 C48,255.74 255.74,48 512,48 C768.26,48 976,255.74 976,512 C976,768.26 768.26,976 512,976 z" fill="#0C42F2"/>
    <path d="M512,880 C255.74,880 48,715.241 48,512 C48,308.759 255.74,144 512,144 C768.26,144 976,308.759 976,512 C976,715.241 768.26,880 512,880 z" fill="#3866FF"/>
    <path d="M512,928 C450.144,928 400,902.928 400,872 C400,841.072 450.144,816 512,816 C573.856,816 624,841.072 624,872 C624,902.928 573.856,928 512,928 z" fill="#3866FF"/>
    <g>
      <path d="M304,413.738 C259.817,413.738 224,491.421 224,390.583 C224,289.745 259.817,272 304,272 C348.183,272 384,289.745 384,390.583 C384,491.421 348.183,413.738 304,413.738 z" fill="#CFB400"/>
      <path d="M304,445.49 C270.863,445.49 224,510.045 224,432 C224,353.955 270.863,335.016 304,335.016 C337.137,335.016 384,353.955 384,432 C384,510.045 337.137,445.49 304,445.49 z" fill="#FFEE91"/>
      <path d="M304.5,445.99 C208.5,445.99 224.5,519.706 224.5,420.367 C224.5,321.029 260.317,272.5 304.5,272.5 C348.683,272.5 384.5,321.029 384.5,420.367 C384.5,519.706 370.272,445.99 304.5,445.99 z" fill-opacity="0" stroke="#001156" stroke-width="41" stroke-linecap="round" stroke-linejoin="round"/>
    </g>
    <g>
      <path d="M721,413.738 C676.817,413.738 641,491.421 641,390.583 C641,289.745 676.817,272 721,272 C765.183,272 801,289.745 801,390.583 C801,491.421 765.183,413.738 721,413.738 z" fill="#CFB400"/>
      <path d="M721,445.49 C687.863,445.49 641,510.045 641,432 C641,353.955 687.863,335.016 721,335.016 C754.137,335.016 801,353.955 801,432 C801,510.045 754.137,445.49 721,445.49 z" fill="#FFEE91"/>
      <path d="M721.5,445.99 C625.5,445.99 641.5,519.706 641.5,420.367 C641.5,321.029 677.317,272.5 721.5,272.5 C765.683,272.5 801.5,321.029 801.5,420.367 C801.5,519.706 787.273,445.99 721.5,445.99 z" fill-opacity="0" stroke="#001156" stroke-width="41" stroke-linecap="round" stroke-linejoin="round"/>
    </g>
    <path d="M512.5,976.5 C256.24,976.5 48.5,768.76 48.5,512.5 C48.5,256.24 256.24,48.5 512.5,48.5 C768.76,48.5 976.5,256.24 976.5,512.5 C976.5,768.76 768.76,976.5 512.5,976.5 z" fill-opacity="0" stroke="#001156" stroke-width="41"/>
    <g>
      <path d="M512,759.556 C554.303,759.556 588.597,711.857 588.597,788.67 C588.597,865.483 554.303,879 512,879 C469.697,879 435.403,865.483 435.403,788.67 C435.403,711.857 469.697,759.556 512,759.556 z" fill="#AB1500"/>
      <path d="M512,728.579 C543.728,728.579 588.597,697.67 588.597,757.121 C588.597,816.571 543.728,830.998 512,830.998 C480.272,830.998 435.403,816.571 435.403,757.121 C435.403,697.67 480.272,728.579 512,728.579 z" fill="#D11E01"/>
      <path d="M512.5,729.079 C572.82,730.602 589.097,691.192 589.097,766.862 C589.097,842.533 554.803,879.5 512.5,879.5 C470.197,879.5 435.903,842.533 435.903,766.862 C435.903,691.192 449.557,727.489 512.5,729.079 z" fill-opacity="0" stroke="#001156" stroke-width="41" stroke-linecap="round" stroke-linejoin="round"/>
    </g>
    <g>
      <path d="M511,721.5 C395.296,721.5 339.5,696.5 301.5,651" fill-opacity="0" stroke="#001156" stroke-width="43" stroke-linecap="round" stroke-linejoin="round"/>
      <path d="M720.5,651 C681.5,696.5 626.704,721.5 511,721.5" fill-opacity="0" stroke="#001156" stroke-width="43" stroke-linecap="round" stroke-linejoin="round"/>
    </g>
    <g>
      <path d="M698.508,679.127 L692.586,763.175 L688.235,835.66 L648.225,775.062 L608.215,714.464 L652.576,702.578 z" fill="#CFB401"/>
      <path d="M697.732,738.024 L691.498,781.297 L685.263,824.57 L658.227,790.211 L631.192,755.853 L664.462,746.939 z" fill="#FFEE91"/>
      <path d="M699.008,679.627 L693.086,763.675 L688.735,836.16 L648.725,775.562 L608.715,714.964 L653.076,703.078 z" fill-opacity="0" stroke="#001156" stroke-width="21" stroke-linecap="round" stroke-linejoin="round"/>
    </g>
    <g>
      <path d="M323.215,679.127 L329.138,763.175 L333.489,835.66 L373.498,775.062 L413.508,714.464 L369.148,702.578 z" fill="#CFB401"/>
      <path d="M323.991,738.024 L330.226,781.297 L336.46,824.57 L363.496,790.211 L390.532,755.853 L357.262,746.939 z" fill="#FFEE91"/>
      <path d="M323.715,679.627 L329.638,763.675 L333.989,836.16 L373.998,775.562 L414.008,714.964 L369.648,703.078 z" fill-opacity="0" stroke="#001156" stroke-width="21" stroke-linecap="round" stroke-linejoin="round"/>
    </g>
  </g>
</svg>
