<?xml version="1.0" encoding="UTF-8"?>
<!DOCTYPE svg PUBLIC "-//W3C//DTD SVG 1.1//EN" "http://www.w3.org/Graphics/SVG/1.1/DTD/svg11.dtd">
<svg version="1.1" xmlns="http://www.w3.org/2000/svg" xmlns:xlink="http://www.w3.org/1999/xlink" x="0" y="0" width="1024" height="1024" viewBox="0, 0, 1024, 1024">
  <g id="dark-emoji-0027.png" transform="translate(0, 0)">
    <path d="M512,976 C255.74,976 48,768.26 48,512 C48,255.74 255.74,48 512,48 C768.26,48 976,255.74 976,512 C976,768.26 768.26,976 512,976 z" fill="#0C42F2"/>
    <path d="M512,880 C255.74,880 48,715.241 48,512 C48,308.759 255.74,144 512,144 C768.26,144 976,308.759 976,512 C976,715.241 768.26,880 512,880 z" fill="#3866FF"/>
    <path d="M512.5,976.5 C256.24,976.5 48.5,768.76 48.5,512.5 C48.5,256.24 256.24,48.5 512.5,48.5 C768.76,48.5 976.5,256.24 976.5,512.5 C976.5,768.76 768.76,976.5 512.5,976.5 z" fill-opacity="0" stroke="#001156" stroke-width="41"/>
    <path d="M512,928 C450.144,928 400,902.928 400,872 C400,841.072 450.144,816 512,816 C573.856,816 624,841.072 624,872 C624,902.928 573.856,928 512,928 z" fill="#3866FF"/>
    <path d="M304,483 C227.785,483 166,412.693 166,325.966 C166,239.238 227.785,168.931 304,168.931 C380.215,168.931 442,239.238 442,325.966 C442,412.693 380.215,483 304,483 z" fill="#6887FF"/>
    <g>
      <path d="M304,272 C259.817,272 224,297.308 224,368 C224,438.693 259.817,464 304,464 C348.183,464 384,438.693 384,368 C384,297.308 348.183,272 304,272 z" fill="#CFB400"/>
      <path d="M304,272 C270.863,272 244,275.817 244,320 C244,364.183 270.863,400 304,400 C337.137,400 364,364.183 364,320 C364,275.817 337.137,272 304,272 z" fill="#FFEE91"/>
      <path d="M304.5,272.5 C260.317,272.5 224.5,297.808 224.5,368.5 C224.5,439.193 260.317,464.5 304.5,464.5 C348.683,464.5 384.5,439.193 384.5,368.5 C384.5,297.808 348.683,272.5 304.5,272.5 z" fill-opacity="0" stroke="#001156" stroke-width="41"/>
    </g>
    <g>
      <path d="M461.287,593 L429.287,689 L397.287,785 L365.287,689 L333.287,593 L397.287,593 z" fill="#CFB401"/>
      <path d="M445.287,657 L421.287,713 L397.287,769 L373.287,713 L349.287,657 L397.287,657 z" fill="#FFEE91"/>
      <path d="M461.787,593.5 L429.787,689.5 L397.787,785.5 L365.787,689.5 L333.787,593.5 L397.787,593.5 z" fill-opacity="0" stroke="#001156" stroke-width="21" stroke-linecap="round" stroke-linejoin="round"/>
    </g>
    <g>
      <path d="M674,611 L648.713,689 L616.713,785 L584.713,689 L552.713,593 L616.713,593 z" fill="#CFB401"/>
      <path d="M664.712,657 L640.712,713 L616.712,769 L592.713,713 L568.713,657 L616.712,657 z" fill="#FFEE91"/>
      <path d="M674.5,611.5 L649.213,689.5 L617.213,785.5 L585.213,689.5 L553.213,593.5 L617.213,593.5 z" fill-opacity="0" stroke="#001156" stroke-width="21" stroke-linecap="round" stroke-linejoin="round"/>
    </g>
    <path d="M301.5,593.5 C301.5,593.5 428.979,593.5 510.012,593.5 C591.045,593.5 696.783,605.5 720.5,634.5" fill-opacity="0" stroke="#011256" stroke-width="43" stroke-linecap="round"/>
    <path d="M186.27,186.633 C264.71,141.346 365.011,168.221 410.298,246.661" fill-opacity="0" stroke="#001156" stroke-width="42" stroke-linecap="round"/>
    <path d="M720,483 C643.785,483 582,412.693 582,325.966 C582,239.238 643.785,168.931 720,168.931 C796.215,168.931 858,239.238 858,325.966 C858,412.693 796.215,483 720,483 z" fill="#6887FF"/>
    <g>
      <path d="M720,272 C675.817,272 640,297.308 640,368 C640,438.692 675.817,464 720,464 C764.183,464 800,438.692 800,368 C800,297.308 764.183,272 720,272 z" fill="#CFB400"/>
      <path d="M720,272 C686.863,272 660,275.817 660,320 C660,364.183 686.863,400 720,400 C753.137,400 780,364.183 780,320 C780,275.817 753.137,272 720,272 z" fill="#FFEE91"/>
      <path d="M720.5,272.5 C676.317,272.5 640.5,297.808 640.5,368.5 C640.5,439.192 676.317,464.5 720.5,464.5 C764.683,464.5 800.5,439.192 800.5,368.5 C800.5,297.808 764.683,272.5 720.5,272.5 z" fill-opacity="0" stroke="#001156" stroke-width="41"/>
    </g>
    <path d="M614.702,246.661 C659.989,168.221 760.29,141.346 838.73,186.633" fill-opacity="0" stroke="#001156" stroke-width="42" stroke-linecap="round"/>
    <path d="M323,361.466 C303.394,361.466 287.5,345.572 287.5,325.966 C287.5,306.359 303.394,290.466 323,290.466 C342.606,290.466 358.5,306.359 358.5,325.966 C358.5,345.572 342.606,361.466 323,361.466 z" fill="#011256"/>
    <path d="M700,361.466 C680.394,361.466 664.5,345.572 664.5,325.966 C664.5,306.359 680.394,290.466 700,290.466 C719.606,290.466 735.5,306.359 735.5,325.966 C735.5,345.572 719.606,361.466 700,361.466 z" fill="#011256"/>
  </g>
</svg>
