<?xml version="1.0" encoding="UTF-8"?>
<!DOCTYPE svg PUBLIC "-//W3C//DTD SVG 1.1//EN" "http://www.w3.org/Graphics/SVG/1.1/DTD/svg11.dtd">
<svg version="1.1" xmlns="http://www.w3.org/2000/svg" xmlns:xlink="http://www.w3.org/1999/xlink" x="0" y="0" width="1024" height="1024" viewBox="0, 0, 1024, 1024">
  <g id="dark-emoji-0033.png" transform="translate(0, 0)">
    <path d="M512,976 C255.74,976 48,768.26 48,512 C48,255.74 255.74,48 512,48 C768.26,48 976,255.74 976,512 C976,768.26 768.26,976 512,976 z" fill="#0C42F2"/>
    <path d="M512,880 C255.74,880 48,715.241 48,512 C48,308.759 255.74,144 512,144 C768.26,144 976,308.759 976,512 C976,715.241 768.26,880 512,880 z" fill="#3866FF"/>
    <path d="M512.5,976.5 C256.24,976.5 48.5,768.76 48.5,512.5 C48.5,256.24 256.24,48.5 512.5,48.5 C768.76,48.5 976.5,256.24 976.5,512.5 C976.5,768.76 768.76,976.5 512.5,976.5 z" fill-opacity="0" stroke="#001156" stroke-width="41"/>
    <path d="M512,928 C450.144,928 400,902.928 400,872 C400,841.072 450.144,816 512,816 C573.856,816 624,841.072 624,872 C624,902.928 573.856,928 512,928 z" fill="#3866FF"/>
    <g>
      <path d="M512,804 C466.989,804 430.5,756.766 430.5,698.5 C430.5,640.234 466.989,593 512,593 C557.011,593 593.5,640.234 593.5,698.5 C593.5,756.766 557.011,804 512,804 z" fill="#AB1500"/>
      <path d="M510.5,804 C471.288,804 439.5,768.687 439.5,725.127 C439.5,681.567 471.288,666.785 510.5,666.785 C549.712,666.785 581.5,681.567 581.5,725.127 C581.5,768.687 549.712,804 510.5,804 z" fill="#D11E01"/>
      <path d="M512.5,804.5 C467.489,804.5 431,757.266 431,699 C431,640.734 467.489,593.5 512.5,593.5 C557.511,593.5 594,640.734 594,699 C594,757.266 557.511,804.5 512.5,804.5 z" fill-opacity="0" stroke="#011256" stroke-width="42"/>
    </g>
    <path d="M864,672 C810.981,672 768,629.019 768,576 C768,522.981 810.981,480 864,480 C917.019,480 960,522.981 960,576 C960,629.019 917.019,672 864,672 z" fill="#6887FF"/>
    <path d="M160,672 C106.981,672 64,629.019 64,576 C64,522.981 106.981,480 160,480 C213.019,480 256,522.981 256,576 C256,629.019 213.019,672 160,672 z" fill="#6887FF"/>
    <g>
      <path d="M304,483 C227.785,483 166,412.693 166,325.966 C166,239.238 227.785,168.931 304,168.931 C380.215,168.931 442,239.238 442,325.966 C442,412.693 380.215,483 304,483 z" fill="#6887FF"/>
      <path d="M185.165,216.272 C249.211,152.226 353.05,152.226 417.096,216.272" fill-opacity="0" stroke="#001156" stroke-width="42" stroke-linecap="round"/>
    </g>
    <g>
      <path d="M720,483 C643.785,483 582,412.693 582,325.966 C582,239.238 643.785,168.931 720,168.931 C796.215,168.931 858,239.238 858,325.966 C858,412.693 796.215,483 720,483 z" fill="#6887FF"/>
      <path d="M607.904,216.272 C671.95,152.226 775.789,152.226 839.835,216.272" fill-opacity="0" stroke="#001156" stroke-width="42" stroke-linecap="round"/>
    </g>
    <g>
      <path d="M720,464 C675.817,464 640,442.515 640,382.5 C640,322.485 675.817,301 720,301 C764.183,301 800,322.485 800,382.5 C800,442.515 764.183,464 720,464 z" fill="#CFB400"/>
      <path d="M720,464 C686.863,464 660,460.759 660,423.25 C660,385.741 686.863,355.333 720,355.333 C753.137,355.333 780,385.741 780,423.25 C780,460.759 753.137,464 720,464 z" fill="#FFEE91"/>
      <path d="M720.5,464.5 C676.317,464.5 640.5,443.015 640.5,383 C640.5,322.985 676.317,301.5 720.5,301.5 C764.683,301.5 800.5,322.985 800.5,383 C800.5,443.015 764.683,464.5 720.5,464.5 z" fill-opacity="0" stroke="#001156" stroke-width="41"/>
    </g>
    <g>
      <path d="M301,464 C256.817,464 221,442.515 221,382.5 C221,322.485 256.817,301 301,301 C345.183,301 381,322.485 381,382.5 C381,442.515 345.183,464 301,464 z" fill="#CFB400"/>
      <path d="M301,464 C267.863,464 241,460.759 241,423.25 C241,385.741 267.863,355.333 301,355.333 C334.137,355.333 361,385.741 361,423.25 C361,460.759 334.137,464 301,464 z" fill="#FFEE91"/>
      <path d="M301.5,464.5 C257.317,464.5 221.5,443.015 221.5,383 C221.5,322.985 257.317,301.5 301.5,301.5 C345.683,301.5 381.5,322.985 381.5,383 C381.5,443.015 345.683,464.5 301.5,464.5 z" fill-opacity="0" stroke="#001156" stroke-width="41"/>
    </g>
  </g>
</svg>
