<?xml version="1.0" encoding="UTF-8"?>
<!DOCTYPE svg PUBLIC "-//W3C//DTD SVG 1.1//EN" "http://www.w3.org/Graphics/SVG/1.1/DTD/svg11.dtd">
<svg version="1.1" xmlns="http://www.w3.org/2000/svg" xmlns:xlink="http://www.w3.org/1999/xlink" x="0" y="0" width="1024" height="1024" viewBox="0, 0, 1024, 1024">
  <g id="dark-emoji-0011.png" transform="translate(0, 0)">
    <path d="M512,976 C255.74,976 48,768.26 48,512 C48,255.74 255.74,48 512,48 C768.26,48 976,255.74 976,512 C976,768.26 768.26,976 512,976 z" fill="#0C42F2"/>
    <path d="M512,880 C255.74,880 48,715.241 48,512 C48,308.759 255.74,144 512,144 C768.26,144 976,308.759 976,512 C976,715.241 768.26,880 512,880 z" fill="#3866FF"/>
    <path d="M512,928 C450.144,928 400,902.928 400,872 C400,841.072 450.144,816 512,816 C573.856,816 624,841.072 624,872 C624,902.928 573.856,928 512,928 z" fill="#3866FF"/>
    <path d="M750.773,592 C746.08,648.467 713.21,686.352 685.087,709.532 C631.716,753.523 570.254,767.415 511.387,768 C446.946,766.828 370.68,749.356 315.697,688.59 C296.017,666.84 274.693,633.777 272,592 C272,592 368,672 512,672 C656,672 750.773,592 750.773,592 z" fill="#AB1500"/>
    <path d="M752,656 C747.294,691.934 714.34,716.042 686.146,730.793 C632.638,758.787 571.018,767.627 512,768 C447.394,767.254 370.933,756.136 315.809,717.466 C296.078,703.625 274.699,682.585 272,656 C272,656 384,720 512,720 C640,720 752,656 752,656 z" fill="#D11D00"/>
    <path d="M767.887,592.5 C762.879,648.967 727.812,686.852 697.81,710.032 C640.872,754.023 575.302,767.915 512.5,768.5 C443.753,767.328 362.389,749.856 303.731,689.09 C282.735,667.34 259.986,634.277 257.113,592.5 C257.113,592.5 336.5,672.5 512.5,672.5 C688.5,672.5 767.887,592.5 767.887,592.5 z" fill-opacity="0" stroke="#001156" stroke-width="41" stroke-linecap="round" stroke-linejoin="round"/>
    <g>
      <path d="M391.426,672 L315.713,739.138 L240,806.277 L260.287,707.138 L280.574,608 L336,640 z" fill="#CFB401"/>
      <path d="M345.569,719.426 L296.785,755.923 L248,792.421 L255.215,731.923 L262.431,671.426 L304,695.426 z" fill="#FFEE91"/>
      <path d="M391.926,672.5 L316.213,739.638 L240.5,806.777 L260.787,707.638 L281.074,608.5 L336.5,640.5 z" fill-opacity="0" stroke="#001156" stroke-width="21" stroke-linecap="round" stroke-linejoin="round"/>
    </g>
    <g>
      <path d="M734.851,608 L755.138,707.138 L775.426,806.277 L699.713,739.138 L624,672 L679.426,640 z" fill="#CFB401"/>
      <path d="M752.994,671.426 L760.21,731.923 L767.425,792.421 L718.641,755.923 L669.856,719.426 L711.425,695.426 z" fill="#FFEE91"/>
      <path d="M735.351,608.5 L755.639,707.638 L775.926,806.777 L700.213,739.638 L624.5,672.5 L679.926,640.5 z" fill-opacity="0" stroke="#001156" stroke-width="21" stroke-linecap="round" stroke-linejoin="round"/>
    </g>
    <g>
      <path d="M304,413.738 C259.817,413.738 224,491.421 224,390.583 C224,289.745 259.817,272 304,272 C348.183,272 384,289.745 384,390.583 C384,491.421 348.183,413.738 304,413.738 z" fill="#CFB400"/>
      <path d="M304,445.49 C270.863,445.49 224,510.045 224,432 C224,353.955 270.863,335.016 304,335.016 C337.137,335.016 384,353.955 384,432 C384,510.045 337.137,445.49 304,445.49 z" fill="#FFEE91"/>
      <path d="M304.5,445.99 C208.5,445.99 224.5,519.706 224.5,420.367 C224.5,321.029 260.317,272.5 304.5,272.5 C348.683,272.5 384.5,321.029 384.5,420.367 C384.5,519.706 370.272,445.99 304.5,445.99 z" fill-opacity="0" stroke="#001156" stroke-width="41" stroke-linecap="round" stroke-linejoin="round"/>
    </g>
    <g>
      <path d="M721,413.738 C676.817,413.738 641,491.421 641,390.583 C641,289.745 676.817,272 721,272 C765.183,272 801,289.745 801,390.583 C801,491.421 765.183,413.738 721,413.738 z" fill="#CFB400"/>
      <path d="M721,445.49 C687.863,445.49 641,510.045 641,432 C641,353.955 687.863,335.016 721,335.016 C754.137,335.016 801,353.955 801,432 C801,510.045 754.137,445.49 721,445.49 z" fill="#FFEE91"/>
      <path d="M721.5,445.99 C625.5,445.99 641.5,519.706 641.5,420.367 C641.5,321.029 677.317,272.5 721.5,272.5 C765.683,272.5 801.5,321.029 801.5,420.367 C801.5,519.706 787.273,445.99 721.5,445.99 z" fill-opacity="0" stroke="#001156" stroke-width="41" stroke-linecap="round" stroke-linejoin="round"/>
    </g>
    <path d="M512.5,976.5 C256.24,976.5 48.5,768.76 48.5,512.5 C48.5,256.24 256.24,48.5 512.5,48.5 C768.76,48.5 976.5,256.24 976.5,512.5 C976.5,768.76 768.76,976.5 512.5,976.5 z" fill-opacity="0" stroke="#001156" stroke-width="41"/>
    <g>
      <path d="M511.387,781.394 C568.977,781.394 615.663,716.458 615.663,821.028 C615.663,925.598 568.977,944 511.387,944 C453.797,944 407.11,925.598 407.11,821.028 C407.11,716.458 453.797,781.394 511.387,781.394 z" fill="#AB1500"/>
      <path d="M511.387,739.222 C554.58,739.222 615.663,697.144 615.663,778.078 C615.663,859.012 554.58,878.651 511.387,878.651 C468.194,878.651 407.11,859.012 407.11,778.078 C407.11,697.144 468.194,739.222 511.387,739.222 z" fill="#D11E01"/>
      <path d="M511.887,739.722 C594.004,741.797 616.163,688.145 616.163,791.16 C616.163,894.174 569.477,944.5 511.887,944.5 C454.297,944.5 407.61,894.174 407.61,791.16 C407.61,688.145 426.198,737.558 511.887,739.722 z" fill-opacity="0" stroke="#001156" stroke-width="41" stroke-linecap="round" stroke-linejoin="round"/>
    </g>
  </g>
</svg>
