<?xml version="1.0" encoding="UTF-8"?>
<!DOCTYPE svg PUBLIC "-//W3C//DTD SVG 1.1//EN" "http://www.w3.org/Graphics/SVG/1.1/DTD/svg11.dtd">
<svg version="1.1" xmlns="http://www.w3.org/2000/svg" xmlns:xlink="http://www.w3.org/1999/xlink" x="0" y="0" width="1024" height="1024" viewBox="0, 0, 1024, 1024">
  <g id="dark-emoji-0030.png" transform="translate(0, 0)">
    <path d="M512,976 C255.74,976 48,768.26 48,512 C48,255.74 255.74,48 512,48 C768.26,48 976,255.74 976,512 C976,768.26 768.26,976 512,976 z" fill="#0C42F2"/>
    <path d="M512,880 C255.74,880 48,715.241 48,512 C48,308.759 255.74,144 512,144 C768.26,144 976,308.759 976,512 C976,715.241 768.26,880 512,880 z" fill="#3866FF"/>
    <path d="M512.5,976.5 C256.24,976.5 48.5,768.76 48.5,512.5 C48.5,256.24 256.24,48.5 512.5,48.5 C768.76,48.5 976.5,256.24 976.5,512.5 C976.5,768.76 768.76,976.5 512.5,976.5 z" fill-opacity="0" stroke="#001156" stroke-width="41"/>
    <path d="M512,928 C450.144,928 400,902.928 400,872 C400,841.072 450.144,816 512,816 C573.856,816 624,841.072 624,872 C624,902.928 573.856,928 512,928 z" fill="#3866FF"/>
    <g>
      <path d="M434.26,579.707 L428.197,680.718 L422.134,781.729 L366.378,697.282 L310.621,612.836 L372.441,596.271 z" fill="#CFB401"/>
      <path d="M435.37,645.667 L426.681,705.971 L417.993,766.274 L380.317,718.394 L342.641,670.514 L389.005,658.091 z" fill="#FFEE91"/>
      <path d="M434.76,580.207 L428.697,681.218 L422.634,782.229 L366.878,697.782 L311.121,613.336 L372.941,596.771 z" fill-opacity="0" stroke="#001156" stroke-width="21" stroke-linecap="round" stroke-linejoin="round"/>
    </g>
    <g>
      <path d="M705.953,612.836 L650.197,697.282 L594.441,781.729 L588.378,680.718 L582.315,579.707 L644.134,596.271 z" fill="#CFB401"/>
      <path d="M673.934,670.514 L636.258,718.394 L598.582,766.274 L589.893,705.971 L581.205,645.667 L627.569,658.091 z" fill="#FFEE91"/>
      <path d="M706.453,613.336 L650.697,697.782 L594.941,782.229 L588.878,681.218 L582.815,580.207 L644.634,596.771 z" fill-opacity="0" stroke="#001156" stroke-width="21" stroke-linecap="round" stroke-linejoin="round"/>
    </g>
    <path d="M301.5,620.5 C301.5,620.5 383.5,580.5 512.5,580.5 C641.5,580.5 720.5,620.5 720.5,620.5" fill-opacity="0" stroke="#011256" stroke-width="43" stroke-linecap="round"/>
    <path d="M385.926,205.5 C340.638,283.94 240.337,310.815 161.897,265.528" fill-opacity="0" stroke="#001156" stroke-width="41" stroke-linecap="round"/>
    <path d="M862.528,265.528 C784.088,310.815 683.787,283.94 638.5,205.5" fill-opacity="0" stroke="#001156" stroke-width="41" stroke-linecap="round"/>
    <g>
      <path d="M741.094,461.223 C698.416,472.658 658.259,461.176 642.726,403.206 C627.193,345.236 656.229,315.212 698.906,303.777 C741.583,292.342 781.741,303.824 797.274,361.794 C812.807,419.764 783.771,449.788 741.094,461.223 z" fill="#CFB400"/>
      <path d="M741.094,461.223 C709.086,469.799 682.3,473.622 672.591,437.391 C662.883,401.159 680.961,364.836 712.969,356.259 C744.977,347.682 778.794,370.101 788.503,406.332 C798.211,442.564 773.102,452.646 741.094,461.223 z" fill="#FFEE91"/>
      <path d="M741.594,461.723 C698.916,473.158 658.759,461.676 643.226,403.706 C627.693,345.736 656.729,315.712 699.406,304.277 C742.083,292.842 782.241,304.324 797.774,362.294 C813.307,420.264 784.271,450.288 741.594,461.723 z" fill-opacity="0" stroke="#001156" stroke-width="41"/>
    </g>
    <g>
      <path d="M279.906,461.223 C237.229,449.788 208.193,419.764 223.726,361.794 C239.259,303.824 279.417,292.342 322.094,303.777 C364.771,315.212 393.807,345.236 378.274,403.206 C362.741,461.176 322.584,472.658 279.906,461.223 z" fill="#CFB400"/>
      <path d="M279.906,461.223 C247.898,452.647 222.79,442.564 232.498,406.332 C242.206,370.101 276.023,347.683 308.031,356.259 C340.039,364.836 358.117,401.159 348.409,437.391 C338.701,473.622 311.914,469.8 279.906,461.223 z" fill="#FFEE91"/>
      <path d="M280.406,461.723 C237.729,450.288 208.693,420.264 224.226,362.294 C239.759,304.324 279.917,292.842 322.594,304.277 C365.271,315.712 394.307,345.736 378.774,403.706 C363.241,461.676 323.084,473.158 280.406,461.723 z" fill-opacity="0" stroke="#001156" stroke-width="41"/>
    </g>
    <g>
      <path d="M902.006,740.075 C865.136,749.954 831.382,733.998 817.818,692.913 C797.035,629.965 794.043,484.628 830.912,474.749 C867.782,464.87 936.183,581.638 951.335,657.137 C962.772,714.125 938.876,730.195 902.006,740.075 z" fill="#830E00"/>
      <path d="M902.006,740.074 C865.136,749.954 833.235,740.915 822.986,712.203 C807.284,668.212 815.125,563.308 851.995,553.429 C888.864,543.55 947.25,622.94 956.504,676.427 C963.488,716.8 938.876,730.195 902.006,740.074 z" fill="#D11E01"/>
      <path d="M902.506,740.575 C865.636,750.454 831.882,734.498 818.318,693.413 C797.535,630.465 794.543,485.128 831.412,475.249 C868.282,465.37 936.683,582.138 951.835,657.637 C963.272,714.625 939.376,730.695 902.506,740.575 z" fill-opacity="0" stroke="#011256" stroke-width="21"/>
    </g>
  </g>
</svg>
