<?xml version="1.0" encoding="UTF-8"?>
<!DOCTYPE svg PUBLIC "-//W3C//DTD SVG 1.1//EN" "http://www.w3.org/Graphics/SVG/1.1/DTD/svg11.dtd">
<svg version="1.1" xmlns="http://www.w3.org/2000/svg" xmlns:xlink="http://www.w3.org/1999/xlink" x="0" y="0" width="1024" height="1024" viewBox="0, 0, 1024, 1024">
  <g id="dark-emoji-0001.png" transform="translate(0, 0)">
    <path d="M512,976 C255.74,976 48,768.26 48,512 C48,255.74 255.74,48 512,48 C768.26,48 976,255.74 976,512 C976,768.26 768.26,976 512,976 z" fill="#0C42F2"/>
    <path d="M512,880 C255.74,880 48,715.241 48,512 C48,308.759 255.74,144 512,144 C768.26,144 976,308.759 976,512 C976,715.241 768.26,880 512,880 z" fill="#3866FF"/>
    <path d="M512.5,976.5 C256.24,976.5 48.5,768.76 48.5,512.5 C48.5,256.24 256.24,48.5 512.5,48.5 C768.76,48.5 976.5,256.24 976.5,512.5 C976.5,768.76 768.76,976.5 512.5,976.5 z" fill-opacity="0" stroke="#001156" stroke-width="41"/>
    <path d="M512,928 C450.144,928 400,902.928 400,872 C400,841.072 450.144,816 512,816 C573.856,816 624,841.072 624,872 C624,902.928 573.856,928 512,928 z" fill="#3866FF"/>
    <path d="M750.773,592 C746.08,648.467 713.21,686.352 685.087,709.532 C631.716,753.523 570.254,767.414 511.387,768 C446.946,766.828 370.68,749.356 315.697,688.59 C296.017,666.84 274.692,633.777 272,592 L750.773,592 z" fill="#AB1500"/>
    <path d="M752,656 C747.294,691.934 714.34,716.042 686.146,730.793 C632.638,758.787 571.018,767.627 512,768 C447.394,767.254 370.933,756.136 315.809,717.466 C296.078,703.626 274.699,682.586 272,656 L752,656 z" fill="#D11D00"/>
    <path d="M767.887,592.5 C762.879,648.967 727.812,686.852 697.81,710.032 C640.872,754.023 575.302,767.915 512.5,768.5 C443.752,767.328 362.389,749.856 303.731,689.09 C282.735,667.34 259.986,634.277 257.113,592.5 L767.887,592.5 z" fill-opacity="0" stroke="#001156" stroke-width="41" stroke-linecap="round" stroke-linejoin="round"/>
    <g>
      <path d="M384,592 L352,688 L320,784 L288,688 L256,592 L320,592 z" fill="#CFB401"/>
      <path d="M368,656 L344,712 L320,768 L296,712 L272,656 L320,656 z" fill="#FFEE91"/>
      <path d="M384.5,592.5 L352.5,688.5 L320.5,784.5 L288.5,688.5 L256.5,592.5 L320.5,592.5 z" fill-opacity="0" stroke="#001156" stroke-width="21" stroke-linecap="round" stroke-linejoin="round"/>
    </g>
    <g>
      <path d="M768,592 L736,688 L704,784 L672,688 L640,592 L704,592 z" fill="#CFB401"/>
      <path d="M751.999,656 L728,712 L704,768 L680,712 L656,656 L704,656 z" fill="#FFEE91"/>
      <path d="M768.5,592.5 L736.5,688.5 L704.5,784.5 L672.5,688.5 L640.5,592.5 L704.5,592.5 z" fill-opacity="0" stroke="#001156" stroke-width="21" stroke-linecap="round" stroke-linejoin="round"/>
    </g>
    <g>
      <path d="M304,464 C259.817,464 224,438.692 224,368 C224,297.308 259.817,272 304,272 C348.183,272 384,297.308 384,368 C384,438.692 348.183,464 304,464 z" fill="#CFB400"/>
      <path d="M304,464 C270.863,464 244,460.183 244,416 C244,371.817 270.863,336 304,336 C337.137,336 364,371.817 364,416 C364,460.183 337.137,464 304,464 z" fill="#FFEE91"/>
      <path d="M304.5,464.5 C260.317,464.5 224.5,439.192 224.5,368.5 C224.5,297.808 260.317,272.5 304.5,272.5 C348.683,272.5 384.5,297.808 384.5,368.5 C384.5,439.192 348.683,464.5 304.5,464.5 z" fill-opacity="0" stroke="#001156" stroke-width="41"/>
    </g>
    <g>
      <path d="M720,464 C675.817,464 640,438.692 640,368 C640,297.308 675.817,272 720,272 C764.183,272 800,297.308 800,368 C800,438.692 764.183,464 720,464 z" fill="#CFB400"/>
      <path d="M720,464 C686.863,464 660,460.183 660,416 C660,371.817 686.863,336 720,336 C753.137,336 780,371.817 780,416 C780,460.183 753.137,464 720,464 z" fill="#FFEE91"/>
      <path d="M720.5,464.5 C676.317,464.5 640.5,439.192 640.5,368.5 C640.5,297.808 676.317,272.5 720.5,272.5 C764.683,272.5 800.5,297.808 800.5,368.5 C800.5,439.192 764.683,464.5 720.5,464.5 z" fill-opacity="0" stroke="#001156" stroke-width="41"/>
    </g>
  </g>
</svg>
