<?xml version="1.0" encoding="UTF-8"?>
<!DOCTYPE svg PUBLIC "-//W3C//DTD SVG 1.1//EN" "http://www.w3.org/Graphics/SVG/1.1/DTD/svg11.dtd">
<svg version="1.1" xmlns="http://www.w3.org/2000/svg" xmlns:xlink="http://www.w3.org/1999/xlink" x="0" y="0" width="1024" height="1024" viewBox="0, 0, 1024, 1024">
  <g id="dark-emoji-0048.png" transform="translate(0, 0)">
    <path d="M512,976 C255.74,976 48,768.26 48,512 C48,255.74 255.74,48 512,48 C768.26,48 976,255.74 976,512 C976,768.26 768.26,976 512,976 z" fill="#0C42F2"/>
    <path d="M512,880 C255.74,880 48,715.241 48,512 C48,308.759 255.74,144 512,144 C768.26,144 976,308.759 976,512 C976,715.241 768.26,880 512,880 z" fill="#3866FF"/>
    <path d="M512.5,976.5 C256.24,976.5 48.5,768.76 48.5,512.5 C48.5,256.24 256.24,48.5 512.5,48.5 C768.76,48.5 976.5,256.24 976.5,512.5 C976.5,768.76 768.76,976.5 512.5,976.5 z" fill-opacity="0" stroke="#001156" stroke-width="41"/>
    <path d="M512,928 C450.144,928 400,902.928 400,872 C400,841.072 450.144,816 512,816 C573.856,816 624,841.072 624,872 C624,902.928 573.856,928 512,928 z" fill="#3866FF"/>
    <g>
      <path d="M512,836.755 C435.896,836.755 374.201,756.892 374.201,658.377 C374.201,559.862 435.896,480 512,480 C588.104,480 649.799,559.862 649.799,658.377 C649.799,756.892 588.104,836.755 512,836.755 z" fill="#AB1500"/>
      <path d="M509.464,836.755 C443.165,836.755 389.418,777.049 389.418,703.398 C389.418,629.747 443.165,604.755 509.464,604.755 C575.763,604.755 629.509,629.747 629.509,703.398 C629.509,777.049 575.763,836.755 509.464,836.755 z" fill="#D11E01"/>
      <path d="M512.5,837.255 C436.396,837.255 374.701,757.392 374.701,658.877 C374.701,560.362 436.396,480.5 512.5,480.5 C588.604,480.5 650.299,560.362 650.299,658.877 C650.299,757.392 588.604,837.255 512.5,837.255 z" fill-opacity="0" stroke="#011256" stroke-width="42"/>
    </g>
    <path d="M864,672 C810.981,672 768,629.019 768,576 C768,522.981 810.981,480 864,480 C917.019,480 960,522.981 960,576 C960,629.019 917.019,672 864,672 z" fill="#6887FF"/>
    <path d="M160,672 C106.981,672 64,629.019 64,576 C64,522.981 106.981,480 160,480 C213.019,480 256,522.981 256,576 C256,629.019 213.019,672 160,672 z" fill="#6887FF"/>
    <path d="M304,501 C227.785,501 166,426.679 166,335 C166,243.32 227.785,168.999 304,168.999 C380.215,168.999 442,243.32 442,335 C442,426.679 380.215,501 304,501 z" fill="#6887FF"/>
    <path d="M195.688,248.164 C240.029,166.192 340.329,139.316 419.716,188.136" fill-opacity="0" stroke="#001156" stroke-width="42" stroke-linecap="round"/>
    <path d="M720,501 C643.785,501 582,426.679 582,335 C582,243.32 643.785,168.999 720,168.999 C796.215,168.999 858,243.32 858,335 C858,426.679 796.215,501 720,501 z" fill="#6887FF"/>
    <path d="M605.284,188.136 C684.671,139.316 784.971,166.192 829.312,248.164" fill-opacity="0" stroke="#001156" stroke-width="42" stroke-linecap="round"/>
    <g>
      <path d="M304,464 C259.817,464 224,438.692 224,368 C224,297.308 259.817,224 304,224 C348.183,224 384,297.308 384,368 C384,438.692 348.183,464 304,464 z" fill="#CFB400"/>
      <path d="M304,464 C270.863,464 244,460.183 244,416 C244,371.817 270.863,336 304,336 C337.137,336 364,371.817 364,416 C364,460.183 337.137,464 304,464 z" fill="#FFEE91"/>
      <path d="M304.5,480.5 C260.317,480.5 224.5,439.193 224.5,368.5 C224.5,297.808 260.317,224.5 304.5,224.5 C348.683,224.5 384.5,297.808 384.5,368.5 C384.5,439.193 348.683,480.5 304.5,480.5 z" fill-opacity="0" stroke="#001156" stroke-width="41"/>
    </g>
    <g>
      <path d="M720,464 C675.817,464 640,438.692 640,368 C640,297.308 675.817,224 720,224 C764.183,224 800,297.308 800,368 C800,438.692 764.183,464 720,464 z" fill="#CFB400"/>
      <path d="M720,464 C686.863,464 660,460.183 660,416 C660,371.817 686.863,336 720,336 C753.137,336 780,371.817 780,416 C780,460.183 753.137,464 720,464 z" fill="#FFEE91"/>
      <path d="M720.5,480.5 C676.317,480.5 640.5,439.193 640.5,368.5 C640.5,297.808 676.317,224.5 720.5,224.5 C764.683,224.5 800.5,297.808 800.5,368.5 C800.5,439.193 764.683,480.5 720.5,480.5 z" fill-opacity="0" stroke="#001156" stroke-width="41"/>
    </g>
    <g>
      <path d="M624,538.958 L579.095,578.778 L534.19,618.597 L546.223,559.799 L558.255,501 L591.127,519.979 z" fill="#CFB401"/>
      <path d="M596.803,567.086 L567.869,588.733 L538.935,610.379 L543.214,574.498 L547.494,538.618 L572.148,552.852 z" fill="#FFEE91"/>
      <path d="M624.5,539.458 L579.595,579.278 L534.69,619.097 L546.723,560.299 L558.755,501.5 L591.627,520.479 z" fill-opacity="0" stroke="#001156" stroke-width="21" stroke-linecap="round" stroke-linejoin="round"/>
    </g>
    <g>
      <path d="M419.216,778.042 L464.121,738.222 L509.026,698.403 L496.993,757.201 L484.961,816 L452.089,797.021 z" fill="#CFB401"/>
      <path d="M446.413,749.914 L475.347,728.267 L504.281,706.621 L500.002,742.502 L495.722,778.382 L471.068,764.148 z" fill="#FFEE91"/>
      <path d="M419.716,778.542 L464.621,738.722 L509.526,698.903 L497.493,757.701 L485.461,816.5 L452.589,797.521 z" fill-opacity="0" stroke="#001156" stroke-width="21" stroke-linecap="round" stroke-linejoin="round"/>
    </g>
  </g>
</svg>
