<?xml version="1.0" encoding="UTF-8"?>
<!DOCTYPE svg PUBLIC "-//W3C//DTD SVG 1.1//EN" "http://www.w3.org/Graphics/SVG/1.1/DTD/svg11.dtd">
<svg version="1.1" xmlns="http://www.w3.org/2000/svg" xmlns:xlink="http://www.w3.org/1999/xlink" x="0" y="0" width="1024" height="1024" viewBox="0, 0, 1024, 1024">
  <g id="dark-emoji-0047.png" transform="translate(0, 0)">
    <path d="M512,976 C255.74,976 48,768.26 48,512 C48,255.74 255.74,48 512,48 C768.26,48 976,255.74 976,512 C976,768.26 768.26,976 512,976 z" fill="#0C42F2"/>
    <path d="M512,880 C255.74,880 48,715.241 48,512 C48,308.759 255.74,144 512,144 C768.26,144 976,308.759 976,512 C976,715.241 768.26,880 512,880 z" fill="#3866FF"/>
    <path d="M512,928 C450.144,928 400,902.928 400,872 C400,841.072 450.144,816 512,816 C573.856,816 624,841.072 624,872 C624,902.928 573.856,928 512,928 z" fill="#3866FF"/>
    <path d="M750.773,592 C746.08,648.467 713.21,686.352 685.087,709.532 C631.716,753.523 570.254,767.415 511.387,768 C446.946,766.828 370.68,749.356 315.697,688.59 C296.017,666.84 274.693,633.777 272,592 C272,592 368,672 512,672 C656,672 750.773,592 750.773,592 z" fill="#C35400"/>
    <path d="M752,656 C747.294,691.934 714.34,716.042 686.146,730.793 C632.638,758.787 571.018,767.627 512,768 C447.394,767.254 370.933,756.136 315.809,717.466 C296.078,703.625 274.699,682.585 272,656 C272,656 384,720 512,720 C640,720 752,656 752,656 z" fill="#FF862B"/>
    <path d="M767.887,592.5 C762.879,648.967 727.812,686.852 697.81,710.032 C640.872,754.023 575.302,767.915 512.5,768.5 C443.753,767.328 362.389,749.856 303.731,689.09 C282.735,667.34 259.986,634.277 257.113,592.5 C257.113,592.5 336.5,672.5 512.5,672.5 C688.5,672.5 767.887,592.5 767.887,592.5 z" fill-opacity="0" stroke="#001156" stroke-width="41" stroke-linecap="round" stroke-linejoin="round"/>
    <g>
      <path d="M391.426,672 L315.713,739.138 L240,806.277 L260.287,707.138 L280.574,608 L336,640 z" fill="#CFB401"/>
      <path d="M345.569,719.426 L296.785,755.923 L248,792.421 L255.215,731.923 L262.431,671.426 L304,695.426 z" fill="#FFEE91"/>
      <path d="M391.926,672.5 L316.213,739.638 L240.5,806.777 L260.787,707.638 L281.074,608.5 L336.5,640.5 z" fill-opacity="0" stroke="#001156" stroke-width="21" stroke-linecap="round" stroke-linejoin="round"/>
    </g>
    <g>
      <path d="M734.851,608 L755.138,707.138 L775.426,806.277 L699.713,739.138 L624,672 L679.426,640 z" fill="#CFB401"/>
      <path d="M752.994,671.426 L760.21,731.923 L767.425,792.421 L718.641,755.923 L669.856,719.426 L711.425,695.426 z" fill="#FFEE91"/>
      <path d="M735.351,608.5 L755.639,707.638 L775.926,806.777 L700.213,739.638 L624.5,672.5 L679.926,640.5 z" fill-opacity="0" stroke="#001156" stroke-width="21" stroke-linecap="round" stroke-linejoin="round"/>
    </g>
    <path d="M512.5,976.5 C256.24,976.5 48.5,768.76 48.5,512.5 C48.5,256.24 256.24,48.5 512.5,48.5 C768.76,48.5 976.5,256.24 976.5,512.5 C976.5,768.76 768.76,976.5 512.5,976.5 z" fill-opacity="0" stroke="#001156" stroke-width="41"/>
    <g>
      <path d="M511.387,781.394 C568.977,781.394 615.663,716.458 615.663,821.028 C615.663,925.598 568.977,944 511.387,944 C453.797,944 407.11,925.598 407.11,821.028 C407.11,716.458 453.797,781.394 511.387,781.394 z" fill="#C45400"/>
      <path d="M511.387,739.222 C554.58,739.222 615.663,697.144 615.663,778.078 C615.663,859.012 554.58,878.651 511.387,878.651 C468.194,878.651 407.11,859.012 407.11,778.078 C407.11,697.144 468.194,739.222 511.387,739.222 z" fill="#FF862B"/>
      <path d="M511.887,739.722 C594.004,741.797 616.163,688.145 616.163,791.16 C616.163,894.174 569.477,944.5 511.887,944.5 C454.297,944.5 407.61,894.174 407.61,791.16 C407.61,688.145 426.198,737.558 511.887,739.722 z" fill-opacity="0" stroke="#001156" stroke-width="41" stroke-linecap="round" stroke-linejoin="round"/>
    </g>
    <path d="M304,483 C227.785,483 166,412.693 166,325.966 C166,239.238 227.785,168.931 304,168.931 C380.215,168.931 442,239.238 442,325.966 C442,412.693 380.215,483 304,483 z" fill="#6887FF"/>
    <path d="M720,483 C643.785,483 582,412.693 582,325.966 C582,239.238 643.785,168.931 720,168.931 C796.215,168.931 858,239.238 858,325.966 C858,412.693 796.215,483 720,483 z" fill="#6887FF"/>
    <path d="M315.994,241.92 L306.635,276.848 L328.851,282.801 L338.21,247.873 L365.256,255.12 L355.751,290.595 C361.788,292.48 367.627,294.91 373.32,297.648 Q385.297,303.891 390.31,314.232 Q395.274,324.762 392.215,336.176 Q389.233,347.307 380.578,352.065 Q371.683,356.961 360.882,356.897 Q373.636,364.763 378.763,375.438 Q383.934,386.327 380.976,397.364 Q377.438,410.57 366.471,417.539 Q355.53,424.414 339.962,423.276 C333.557,422.86 327.222,421.776 320.931,420.544 L311.422,456.033 L284.376,448.786 L293.693,414.012 L271.477,408.059 L262.159,442.833 L235.114,435.586 L244.431,400.813 L199.033,388.648 L207.449,357.237 L218.863,360.295 L237.188,291.907 L225.774,288.848 L234.19,257.437 L279.589,269.601 L288.948,234.673 L315.994,241.92 z M290.618,354.608 L287.055,353.696 L275.83,350.688 L268.904,376.534 L280.318,379.592 Q314.438,388.735 320.007,387.194 Q325.482,385.628 327.403,378.459 Q329.198,371.762 325.812,367.417 C315.039,360.995 302.627,357.854 290.618,354.608 z M298.077,305.391 L288.644,302.864 L282.224,326.823 L293.449,329.831 Q328.041,339.1 332.511,336.759 Q336.791,334.367 338.232,328.99 Q339.47,324.368 337.343,319.855 Q333.426,315.955 298.077,305.391 z" fill="#011256"/>
    <path d="M698.379,244.171 L707.738,279.099 L685.522,285.052 L676.163,250.124 L649.117,257.371 L658.623,292.846 C652.585,294.731 646.746,297.161 641.053,299.899 Q629.077,306.141 624.063,316.483 Q619.1,327.013 622.158,338.427 Q625.14,349.558 633.796,354.315 Q642.69,359.211 653.491,359.148 Q640.737,367.014 635.61,377.689 Q630.44,388.578 633.397,399.615 Q636.935,412.821 647.902,419.79 Q658.843,426.665 674.411,425.527 C680.816,425.111 687.152,424.027 693.442,422.795 L702.952,458.283 L729.997,451.036 L720.68,416.263 L742.896,410.31 L752.214,445.084 L779.26,437.837 L769.942,403.063 L815.341,390.899 L806.924,359.487 L795.51,362.546 L777.186,294.157 L788.599,291.099 L780.183,259.688 L734.784,271.852 L725.425,236.924 L698.379,244.171 z M723.755,356.859 L727.319,355.947 L738.544,352.939 L745.469,378.785 L734.055,381.843 Q699.935,390.986 694.366,389.445 Q688.891,387.879 686.97,380.71 Q685.176,374.013 688.561,369.668 C699.334,363.246 711.746,360.105 723.755,356.859 z M716.296,307.642 L725.729,305.114 L732.149,329.074 L720.924,332.082 Q686.332,341.351 681.863,339.01 Q677.582,336.618 676.141,331.241 Q674.903,326.619 677.03,322.106 Q680.947,318.206 716.296,307.642 z" fill="#011256"/>
    <path d="M390.528,191.43 C312.088,146.143 211.787,173.018 166.5,251.458" fill-opacity="0" stroke="#001156" stroke-width="41" stroke-linecap="round"/>
    <path d="M853.568,251.458 C808.281,173.018 707.98,146.143 629.54,191.43" fill-opacity="0" stroke="#001156" stroke-width="41" stroke-linecap="round"/>
  </g>
</svg>
