<?xml version="1.0" encoding="UTF-8"?>
<!DOCTYPE svg PUBLIC "-//W3C//DTD SVG 1.1//EN" "http://www.w3.org/Graphics/SVG/1.1/DTD/svg11.dtd">
<svg version="1.1" xmlns="http://www.w3.org/2000/svg" xmlns:xlink="http://www.w3.org/1999/xlink" x="0" y="0" width="1024" height="1024" viewBox="0, 0, 1024, 1024">
  <g id="dark-emoji-0021.png" transform="translate(0, 0)">
    <path d="M512,976 C255.74,976 48,768.26 48,512 C48,255.74 255.74,48 512,48 C768.26,48 976,255.74 976,512 C976,768.26 768.26,976 512,976 z" fill="#0C42F2"/>
    <path d="M512,880 C255.74,880 48,715.241 48,512 C48,308.759 255.74,144 512,144 C768.26,144 976,308.759 976,512 C976,715.241 768.26,880 512,880 z" fill="#3866FF"/>
    <path d="M512,928 C450.144,928 400,902.928 400,872 C400,841.072 450.144,816 512,816 C573.856,816 624,841.072 624,872 C624,902.928 573.856,928 512,928 z" fill="#3866FF"/>
    <g>
      <path d="M750.773,592 C746.08,648.467 713.21,686.352 685.087,709.532 C631.716,753.523 570.254,767.415 511.387,768 C446.946,766.828 370.68,749.356 315.697,688.59 C296.017,666.84 274.693,633.777 272,592 C272,592 368,672 512,672 C656,672 750.773,592 750.773,592 z" fill="#AB1500"/>
      <g>
        <path d="M752,656 C747.294,691.934 714.34,716.042 686.146,730.793 C632.638,758.787 571.018,767.627 512,768 C447.394,767.254 370.933,756.136 315.809,717.466 C296.078,703.625 274.699,682.585 272,656 C272,656 384,720 512,720 C640,720 752,656 752,656 z" fill="#D11D00"/>
        <path d="M767.887,592.5 C762.879,648.967 727.812,686.852 697.81,710.032 C640.872,754.023 575.302,767.915 512.5,768.5 C443.753,767.328 362.389,749.856 303.731,689.09 C282.735,667.34 259.986,634.277 257.113,592.5 C257.113,592.5 336.5,672.5 512.5,672.5 C688.5,672.5 767.887,592.5 767.887,592.5 z" fill-opacity="0" stroke="#001156" stroke-width="41" stroke-linecap="round" stroke-linejoin="round"/>
      </g>
    </g>
    <g>
      <path d="M391.426,672 L315.713,739.138 L240,806.277 L260.287,707.138 L280.574,608 L336,640 z" fill="#CFB401"/>
      <path d="M345.569,719.426 L296.785,755.923 L248,792.421 L255.215,731.923 L262.431,671.426 L304,695.426 z" fill="#FFEE91"/>
      <path d="M391.926,672.5 L316.213,739.638 L240.5,806.777 L260.787,707.638 L281.074,608.5 L336.5,640.5 z" fill-opacity="0" stroke="#001156" stroke-width="21" stroke-linecap="round" stroke-linejoin="round"/>
    </g>
    <g>
      <path d="M734.851,608 L755.138,707.138 L775.426,806.277 L699.713,739.138 L624,672 L679.426,640 z" fill="#CFB401"/>
      <path d="M752.994,671.426 L760.21,731.923 L767.425,792.421 L718.641,755.923 L669.856,719.426 L711.425,695.426 z" fill="#FFEE91"/>
      <path d="M735.351,608.5 L755.639,707.638 L775.926,806.777 L700.213,739.638 L624.5,672.5 L679.926,640.5 z" fill-opacity="0" stroke="#001156" stroke-width="21" stroke-linecap="round" stroke-linejoin="round"/>
    </g>
    <path d="M512.5,976.5 C256.24,976.5 48.5,768.76 48.5,512.5 C48.5,256.24 256.24,48.5 512.5,48.5 C768.76,48.5 976.5,256.24 976.5,512.5 C976.5,768.76 768.76,976.5 512.5,976.5 z" fill-opacity="0" stroke="#001156" stroke-width="41"/>
    <g>
      <path d="M252.262,562.923 L238.88,417.783 L111.731,346.524 L245.632,288.946 L274.112,146 L370.249,255.555 L511,241 L440.515,363.755 L501.496,496.141 L359.324,464.017 z" fill="#0C42F2"/>
      <path d="M204.428,508.566 L191.046,363.426 L63.897,292.167 L197.798,234.589 L226.278,91.643 L322.415,201.198 L467.166,184.111 L392.681,309.398 L453.662,441.784 L311.49,409.66 z" fill="#CFB400"/>
      <path d="M204.428,508.566 L198.313,390.546 L119.352,321.599 L238.479,276.994 L252.315,186.605 L315.674,257.367 L437.198,237.49 L399.947,336.518 L453.662,441.784 L314.921,422.464 z" fill="#FFEE91"/>
      <path d="M204.928,509.066 L191.546,363.926 L64.397,292.667 L198.298,235.089 L226.778,92.143 L322.915,201.698 L467.666,184.611 L393.181,309.898 L454.162,442.284 L311.99,410.16 z" fill-opacity="0" stroke="#011256" stroke-width="42" stroke-linecap="round" stroke-linejoin="round"/>
    </g>
    <g>
      <path d="M768.738,563.566 L782.12,418.426 L909.269,347.167 L775.368,289.589 L746.888,146.643 L650.751,256.198 L511,241 L580.485,364.398 L519.504,496.784 L661.676,464.66 z" fill="#0C42F2"/>
      <path d="M817.635,508.566 L831.016,363.426 L958.166,292.167 L824.264,234.589 L795.785,91.643 L699.647,201.198 L554.896,184.111 L629.382,309.398 L568.401,441.784 L710.572,409.66 z" fill="#CFB400"/>
      <path d="M817.635,508.566 L823.75,390.546 L902.71,321.599 L783.583,276.994 L769.747,186.605 L706.389,257.367 L584.864,237.49 L622.115,336.518 L568.401,441.784 L707.141,422.464 z" fill="#FFEE91"/>
      <path d="M818.135,509.066 L831.516,363.926 L958.666,292.667 L824.764,235.089 L796.285,92.143 L700.147,201.698 L555.396,184.611 L629.882,309.898 L568.901,442.284 L711.072,410.16 z" fill-opacity="0" stroke="#011256" stroke-width="42" stroke-linecap="round" stroke-linejoin="round"/>
    </g>
  </g>
</svg>
